<svg width="165" height="162" fill="none" xmlns="http://www.w3.org/2000/svg"><g clip-path="url(#clip0_173_213)" fill-rule="evenodd" clip-rule="evenodd"><path d="M78.65 23.03c-15.36 0-29.27 6.23-39.33 16.29-10.06 10.06-16.29 23.97-16.29 39.33 0 12.85 4.47 24.56 11.79 33.97.42.54.38 1.31-.11 1.8l-14.56 14.57c-.28.28-.63.41-1.02.4-.4-.02-.73-.18-.98-.49C6.81 115.26 0 97.75 0 78.65c0-21.72 8.8-41.38 23.04-55.61C37.27 8.8 56.93 0 78.65 0s41.38 8.8 55.61 23.04C149.18 37.96 157.4 58 157.29 79.06c0 .61-.38 1.12-.96 1.29l-20.71 6.33c-.45.14-.91.05-1.27-.26-.36-.3-.53-.74-.48-1.21 2.04-16.85-3.82-33.82-15.9-45.9C107.91 29.25 94 23.02 78.64 23.02l.01.01z" fill="#FFCB05"/><path d="M77.29 134.31l-26.65 26.65c-.27.27-.59.4-.96.4s-.7-.13-.96-.4c-7.5-7.53-15.85-16.2-23.28-23.66-.53-.53-.53-1.39 0-1.92l14.53-14.54c.27-.27.59-.4.97-.4s.7.14.96.41l6.92 7.06c.26.27.59.41.96.41.38 0 .7-.13.97-.4l26.53-26.53c.53-.53 1.39-.53 1.92 0l26.54 26.53c.27.27.59.4.97.4s.7-.14.96-.41l24.86-25.23-7.01-3.61 38.7-11.83-11.83 38.7-3.45-6.78-41.21 41.63c-.26.27-.59.4-.96.4-.38 0-.7-.13-.96-.4-8.86-8.85-17.71-17.59-26.6-26.47-.53-.53-1.39-.53-1.92 0v-.01z" fill="url(#paint0_linear_173_213)"/></g><defs><linearGradient id="paint0_linear_173_213" x1="94.63" y1="161.19" x2="94.64" y2="101.03" gradientUnits="userSpaceOnUse"><stop stop-color="#2E3192"/><stop offset="1" stop-color="#376FB7"/></linearGradient><clipPath id="clip0_173_213"><path fill="#fff" d="M0 0h164.23v161.35H0z"/></clipPath></defs></svg>