<svg width="64" height="64" viewBox="0 0 64 64" fill="none" xmlns="http://www.w3.org/2000/svg">
<path fill-rule="evenodd" clip-rule="evenodd" d="M15.3129 17.2764C7.53138 19.609 0.897214 21.7607 0.570695 22.0584C-0.188487 22.7495 -0.190509 23.9329 0.566315 24.6195C0.890812 24.9135 7.37301 27.0185 14.9716 29.2967L28.7871 33.4389L31.4829 33.5857L34.1786 33.7325L46.19 30.1478C52.7962 28.1761 58.3686 26.5631 58.5735 26.5631C59.1632 26.5631 59.0379 32.0063 58.4293 32.816C57.8076 33.6434 57.7904 35.3899 58.3959 36.2234L58.8572 36.8585L58.1873 38.481C57.8187 39.3738 57.6061 40.3378 57.7153 40.6236L57.9134 41.1434L59.8617 41.1383C60.9329 41.1353 62.0227 40.9973 62.2832 40.8315L62.7566 40.53L61.9829 38.6125L61.2096 36.695L61.5941 36.3082C62.0672 35.8321 62.1042 33.1239 61.6412 32.836C61.4515 32.718 61.3043 31.0806 61.3043 29.0862V25.5459H61.7642C62.5814 25.5459 64 24.1651 64 23.3697C64 22.9462 63.7348 22.3582 63.4103 22.0635C63.0858 21.7689 56.3856 19.609 48.5205 17.2639L34.2207 13L31.8407 13.0176L29.4611 13.0353L15.3129 17.2764ZM11.4334 38.4189V43.8777L11.9106 45.0272C12.5788 46.6365 13.5061 47.1396 18.5943 48.6543C29.1133 51.786 35.5062 51.7826 46.0131 48.6397C51.2496 47.0735 51.7062 46.8524 52.3713 45.5582L52.8801 44.5677V38.7868C52.8801 35.607 52.801 33.0056 52.7039 33.0056C52.6072 33.0056 48.9302 34.0896 44.5325 35.4144C35.5295 38.1266 33.0174 38.5752 29.5777 38.0842C27.7429 37.8225 19.929 35.6239 12.0231 33.1449L11.4334 32.9598V38.4189Z" fill="url(#paint0_radial_340_1656)"/>
<defs>
<radialGradient id="paint0_radial_340_1656" cx="0" cy="0" r="1" gradientTransform="matrix(1.5 -41.1667 46.0964 -16.3729 34.5 51)" gradientUnits="userSpaceOnUse">
<stop offset="0.02" stop-color="#B4FBD2"/>
<stop offset="1" stop-color="#07AE4D"/>
</radialGradient>
</defs>
</svg>
