<svg width="64" height="64" viewBox="0 0 64 64" fill="none" xmlns="http://www.w3.org/2000/svg">
<path fill-rule="evenodd" clip-rule="evenodd" d="M22.0952 13.7945V16.5894L19.7143 16.7007L17.3333 16.8125L17.2316 26.0938L17.1295 35.375H19.6126H22.0952V38.375V41.375H23.2221H24.349L24.4602 38.4688L24.5714 35.5625L26.9589 35.4508L29.3467 35.339L29.2446 26.0758L29.1429 16.8125L26.7619 16.7007L24.381 16.5894V13.7945V11H23.2381H22.0952V13.7945ZM57.0636 19.9062L56.9524 22.8125L54.5714 22.9242L52.1905 23.0356V32.393V41.75H54.6667H57.1429V44.5625V47.375H58.2857H59.4286V44.5625V41.75H61.7143H64V32.375V23H61.7143H59.4286V20V17H58.3017H57.1749L57.0636 19.9062ZM4.82552 18.0001C4.68571 18.1374 4.57143 19.4874 4.57143 21.0001V23.75H2.28571H0V35.5625V47.375H2.28571H4.57143V50.1875V53H5.71429H6.85714V50.1875V47.375H9.33333H11.8095V35.5625V23.75H9.33333H6.85714V20.75V17.75H5.96838C5.47924 17.75 4.96495 17.8625 4.82552 18.0001ZM19.8095 26.1875V33.125H23.2381H26.6667V26.1875V19.25H23.2381H19.8095V26.1875ZM39.619 25.8125V28.625H37.1337H34.6488L34.7528 35.0938L34.8571 41.5625L37.2381 41.6742L39.619 41.7856V44.5805V47.375H40.7619H41.9048V44.5805V41.7856L44.2857 41.6742L46.6667 41.5625V35.1875V28.8125L44.2857 28.7008L41.9048 28.5894V25.7945V23H40.7619H39.619V25.8125ZM54.4762 32.1875V39.125H58.0952H61.7143V32.1875V25.25H58.0952H54.4762V32.1875ZM2.28571 35.3607V44.75H5.91124H9.53714L9.43505 35.4688L9.33333 26.1875L5.80952 26.0795L2.28571 25.9719V35.3607ZM37.3333 35.1875V39.125H40.7619H44.1905V35.1875V31.25H40.7619H37.3333V35.1875Z" fill="url(#membership_yellow_radial_gradient)"/>
<defs>
<radialGradient id="membership_yellow_radial_gradient" cx="0" cy="0" r="1" gradientTransform="matrix(1.5 -45.5 46.0964 -18.0964 34.5 53)" gradientUnits="userSpaceOnUse">
<stop offset="0.02" stop-color="#FFDD75"/>
<stop offset="1" stop-color="#FFC107"/>
</radialGradient>
</defs>
</svg>
