<svg width="340" height="270" viewBox="0 0 340 270" fill="none" xmlns="http://www.w3.org/2000/svg">
<path fill-rule="evenodd" clip-rule="evenodd" d="M161.43 1.51417C152.404 4.82117 146.12 12.7902 145.162 22.1442C144.451 29.0742 146.085 34.8012 150.377 40.4232L153.859 44.9852L132.73 78.1832C121.109 96.4412 110.867 112.401 109.97 113.648C107.636 116.894 99.1122 120.941 94.6112 120.941C92.5012 120.941 89.2552 120.306 87.3972 119.53C84.8712 118.474 51.5762 94.3862 46.6042 90.0162C46.1992 89.6612 46.7622 87.0192 47.8542 84.1452C48.9462 81.2712 49.8392 77.2052 49.8392 75.1082C49.8392 58.1672 32.6432 45.8652 16.7832 51.4612C-2.91979 58.4122 -6.04381 84.8152 11.5182 95.9532C14.0382 97.5502 17.9532 99.1362 20.2192 99.4772L24.3392 100.096L34.6662 169.263C40.4312 207.872 45.8222 240.787 46.8682 243.763C50.7932 254.932 60.7622 264.259 72.7662 267.995L79.0172 269.941H169.839H260.661L266.912 267.995C278.918 264.259 288.885 254.932 292.812 243.759C293.86 240.777 299.244 207.906 305.013 169.269L315.339 100.117L319.339 99.4772C327.822 98.1212 335.263 91.6602 338.319 82.9972C345.137 63.6732 326.107 44.6432 306.783 51.4612C297.186 54.8472 291.025 62.7062 290.14 72.6912L289.63 78.4412L291.72 83.9062C292.869 86.9112 293.479 89.6612 293.074 90.0162C288.102 94.3862 254.807 118.474 252.281 119.53C245.726 122.269 237.213 120.675 231.972 115.729C230.399 114.244 219.371 97.7182 207.467 79.0042L185.822 44.9802L189.29 40.4372C191.197 37.9382 193.224 34.2172 193.793 32.1672C199.247 12.5282 180.314 -5.40483 161.43 1.51417Z" fill="url(#paint0_linear_289_70)"/>
<defs>
<linearGradient id="paint0_linear_289_70" x1="170" y1="278" x2="170" y2="1.27272e-06" gradientUnits="userSpaceOnUse">
<stop offset="0.01" stop-color="#3B5BFD"/>
<stop offset="1" stop-color="#0730FF"/>
</linearGradient>
</defs>
</svg>
