<svg preserveAspectRatio="none" width="100%" height="100%" overflow="visible" style="display: block;" viewBox="0 0 40 38" fill="none" xmlns="http://www.w3.org/2000/svg">
<path id="Course" fill-rule="evenodd" clip-rule="evenodd" d="M19.6498 0.0481581C19.5855 0.0713646 16.9715 1.00097 13.841 2.11393L8.1492 4.1374L4.43174 4.17687L0.714284 4.21634L0.502128 4.37673C0.385484 4.46498 0.224788 4.66034 0.145024 4.81087L0 5.08461L0.0201943 18.7936L0.0403106 32.5026L0.201085 32.7205C0.289503 32.8404 0.458698 33.0117 0.577057 33.1012L0.792332 33.264L6.28361 33.2858L11.7748 33.3075V34.4895V35.6715H9.8371H7.89939L7.64162 35.8491C7.22214 36.1381 7.06659 36.4103 7.06659 36.8555C7.06659 37.2823 7.20795 37.5451 7.59445 37.8372L7.8098 38H19.9617H32.1136L32.3289 37.8372C32.7154 37.5451 32.8568 37.2823 32.8568 36.8555C32.8568 36.4103 32.7012 36.1381 32.2817 35.8491L32.024 35.6715H30.0863H28.1485V34.4874V33.3034H33.4705C36.6985 33.3034 38.8969 33.2731 39.0579 33.2264C39.3932 33.1291 39.6609 32.877 39.8512 32.4795L40 32.1687V18.5543C40 11.0664 39.9775 4.96266 39.9501 4.99044C39.9227 5.01822 39.8402 4.92761 39.7668 4.78908C39.6933 4.65047 39.5379 4.46498 39.4212 4.37673L39.2091 4.21634L35.7645 4.17403L32.3199 4.1318L26.2383 2.06294C22.8934 0.925113 20.0689 -0.00322785 19.9617 8.4359e-06C19.8545 0.00324472 19.7141 0.0248726 19.6498 0.0481581ZM15.8867 3.87739C13.6669 4.66326 11.8713 5.32741 11.8964 5.3533C11.9214 5.37919 13.7535 6.04334 15.9677 6.8292L19.9935 8.25806L24.1685 6.84925C26.4647 6.07436 28.3961 5.41842 28.4604 5.3915C28.5522 5.35314 20.1179 2.42825 19.9622 2.44443C19.9405 2.44672 18.1065 3.09153 15.8867 3.87739ZM0.0394529 18.7007C0.0394529 26.2329 0.0485754 29.3143 0.0598031 25.5482C0.0710308 21.782 0.0710308 15.6193 0.0598031 11.8532C0.0485754 8.08701 0.0394529 11.1684 0.0394529 18.7007ZM2.34043 18.7402V30.9354H19.9617H37.5829V18.7402V6.54488H35.5167H33.4505L33.4504 10.235L33.4503 13.9252L33.3139 14.1999C32.8951 15.0437 31.7145 15.043 31.2868 14.1986L31.1114 13.8523V10.4288V7.0053L31.0139 7.04098C30.9604 7.06056 30.4344 7.23224 29.8451 7.42247L28.7737 7.76836L28.773 10.2183L28.7723 12.6683L28.5969 13.0175L28.4214 13.3667L28.0706 13.5381C27.8776 13.6323 26.0531 14.3605 24.0161 15.1564L20.3125 16.6034L19.9617 16.6012L19.6108 16.599L15.7123 15.0729C13.5681 14.2334 11.733 13.4933 11.6344 13.4282C11.5357 13.363 11.3953 13.1996 11.3225 13.065L11.19 12.8201L11.1511 10.2241L11.1121 7.62801L9.595 7.08645L8.07794 6.54488H5.20918H2.34043V18.7402ZM13.4902 10.0888V11.6592L14.2114 11.9409C14.6081 12.0957 16.0641 12.6634 17.4471 13.2024L19.9617 14.1824L22.4762 13.2024C23.8592 12.6634 25.3153 12.0957 25.712 11.9409L26.4332 11.6592V10.1198V8.58027L26.3357 8.61745C26.2822 8.63797 24.8999 9.10352 23.264 9.65203C21.3954 10.2787 20.1708 10.6494 19.9696 10.6494C19.759 10.6494 18.6197 10.2847 16.6408 9.58383C14.9861 8.99775 13.6003 8.51823 13.5612 8.51823C13.5208 8.51823 13.4902 9.19651 13.4902 10.0888ZM5.42025 20.3103C5.13277 20.4416 4.87305 20.7197 4.76273 21.0146C4.70994 21.1557 4.68016 22.1651 4.68125 23.7773L4.68296 26.3178L4.83267 26.6516C4.91906 26.8444 5.09137 27.0528 5.24029 27.1447L5.49822 27.3039L8.17641 27.3042L10.8546 27.3045L11.1185 27.1777C11.2637 27.1079 11.462 26.9214 11.5591 26.7633L11.7358 26.4757V23.7919V21.1082L11.5799 20.8402C11.4941 20.6927 11.3249 20.4974 11.2039 20.4061L10.984 20.2399L8.31902 20.2217L5.65416 20.2035L5.42025 20.3103ZM14.7068 20.3788C13.9078 20.8439 13.9264 22.0168 14.7392 22.4302L15.0106 22.5682L24.6683 22.5683L34.326 22.5684L34.629 22.3961C34.828 22.2828 34.9886 22.105 35.0972 21.8779L35.2626 21.5321L35.2162 21.2431C35.164 20.9169 34.9846 20.6419 34.668 20.4027L34.4527 20.2399L24.7317 20.221L15.0106 20.202L14.7068 20.3788ZM7.01864 23.7525V24.9365H8.18819H9.35774V23.7525V22.5684H8.18819H7.01864V23.7525ZM14.9244 25.0218C13.9852 25.2977 13.8317 26.6243 14.6785 27.147L14.9326 27.3039H24.6789H34.4251L34.6838 27.1442C34.8431 27.046 35.0033 26.8456 35.1004 26.6234L35.2582 26.2622L35.2053 25.9769C35.1309 25.5753 34.8835 25.2582 34.5108 25.0868L34.1912 24.9399L24.6789 24.9453C19.2855 24.9484 15.0617 24.9814 14.9244 25.0218ZM14.1139 34.4874V35.6715H19.9617H25.8094V34.4874V33.3034H19.9617H14.1139V34.4874Z" fill="var(--fill-0, white)"/>
</svg>
