<svg width="32" height="28" viewBox="0 0 32 28" fill="none" xmlns="http://www.w3.org/2000/svg">
<g clip-path="url(#clip0_239_2449)">
<path fill-rule="evenodd" clip-rule="evenodd" d="M14.5947 0.223326C12.9718 0.80833 1.00863 7.32793 0.478537 7.91624C-0.0936942 8.55165 -0.167857 10.0177 0.338078 10.6906C0.53135 10.9473 1.51091 11.6246 2.5152 12.1958L4.34117 13.2339L4.48163 17.2212L4.62208 21.2083L5.08701 22.0346C5.71991 23.1594 6.67448 23.9909 7.91782 24.5002L8.95834 24.9265H14.5857H20.2131V26.1563V27.3861L20.7982 27.6932L21.3834 28L21.9219 27.5224C22.2671 27.2161 22.4604 26.6802 22.4604 26.0291V25.0138L23.5714 24.6875C24.9064 24.2953 26.2385 23.2464 26.895 22.0706L27.3765 21.2083L27.5169 17.2287L27.6574 13.249L29.4735 12.2203C30.4725 11.6543 31.4523 10.9737 31.6507 10.7077C32.1749 10.0051 32.0954 8.48307 31.5046 7.90385C31.0576 7.46564 21.6935 2.24991 18.6548 0.746634C17.0954 -0.0248328 15.7608 -0.196974 14.5947 0.223326ZM15.3807 2.26037C14.5267 2.4686 2.54273 9.08129 2.50536 9.36498C2.4857 9.51646 5.29236 11.1806 8.7426 13.0628L15.0161 16.4853L15.9993 16.4949C16.5906 16.5007 17.5238 16.1909 18.3407 15.7179L19.699 14.9313L17.2873 12.5558C15.9608 11.2494 14.8756 9.97036 14.8756 9.71339C14.8756 9.29585 15.6431 8.67641 16.1605 8.67641C16.2698 8.67641 17.575 9.8478 19.0616 11.2797L21.764 13.8831L25.6581 11.7532C27.7998 10.5821 29.5499 9.51123 29.5469 9.37352C29.5407 9.06504 17.4061 2.46061 16.5077 2.2769C16.1507 2.20364 15.6436 2.19648 15.3807 2.26037ZM6.72897 17.3435V20.2716L7.15513 21.0797C7.38941 21.5239 7.95209 22.0756 8.40521 22.3053L9.22943 22.7231H14.7211H20.2131V20.1066C20.2131 18.6515 20.0954 17.49 19.9482 17.49C19.8026 17.49 19.2048 17.7668 18.62 18.1051L17.5567 18.7204L16.0055 18.7082L14.4542 18.6961L11.5046 17.0937C9.88228 16.2123 8.14424 15.2492 7.64196 14.9534L6.72897 14.4155V17.3435ZM23.7987 15.2558L22.4686 15.9752L22.4643 19.3492C22.4621 21.2047 22.5298 22.7231 22.6149 22.7231C23.1807 22.7231 24.4886 21.7522 24.853 21.0618L25.2884 20.2358L25.2089 17.3859L25.1291 14.5361L23.7987 15.2558Z" fill="black"/>
</g>
<defs>
<clipPath id="clip0_239_2449">
<rect width="32" height="28" fill="white"/>
</clipPath>
</defs>
</svg>
