<svg preserveAspectRatio="none" width="100%" height="100%" overflow="visible" style="display: block;" viewBox="0 0 50 38" fill="none" xmlns="http://www.w3.org/2000/svg">
<path id="membertship" fill-rule="evenodd" clip-rule="evenodd" d="M4.19552 0.13972C2.2038 0.574251 0.585304 2.16707 0.126858 4.14393L0.00253368 4.68023L0.00126684 19.0249L0 33.3696L0.130659 33.8814C0.629645 35.8357 2.0625 37.3088 3.99282 37.852L4.51858 38H25.0422H45.5659L46.0726 37.8386C46.7362 37.6274 47.4954 37.2393 47.9923 36.8574C48.8345 36.2103 49.578 35.0319 49.87 33.8814L50 33.3696L49.9987 19.0249L49.9975 4.68023L49.8704 4.13182C49.6665 3.25237 49.1213 2.2867 48.4343 1.58819L47.834 0.977781L47.1222 0.622685C46.7261 0.425085 46.1218 0.208335 45.7595 0.133881L45.1084 0L24.9402 0.00704187L4.77196 0.0139973L4.19552 0.13972ZM4.56993 1.63868C3.45253 1.86179 2.3886 2.70474 1.87424 3.77432L1.5625 4.4226L1.53378 6.11864L1.50498 7.81469H16.1664H30.8277V4.68023V1.54576L17.8843 1.55521C10.7654 1.56036 4.77399 1.59789 4.56993 1.63868ZM32.4043 1.60304C32.3376 1.67088 32.327 12.3661 32.3937 12.3661C32.4188 12.3661 32.7704 12.0795 33.1749 11.7293C36.0309 9.25706 36.0042 9.27449 36.4644 9.58021C36.5926 9.66548 37.3247 10.2761 38.0912 10.9372C38.8577 11.5983 39.5513 12.1962 39.6326 12.266L39.7804 12.3927V6.96924V1.54576H36.1205C34.1075 1.54576 32.4352 1.57153 32.4043 1.60304ZM41.357 1.60304C41.326 1.63447 41.3007 3.04498 41.3007 4.73751V7.81469H44.8978H48.495L48.4662 6.11864L48.4375 4.4226L48.1133 3.7623C47.5691 2.65416 46.5475 1.85517 45.3987 1.6392C44.8639 1.53872 41.4503 1.50815 41.357 1.60304ZM1.52027 21.2882V33.2158L1.69012 33.7748C1.9951 34.7789 2.76909 35.6557 3.7723 36.1336L4.2652 36.3684H25.0018H45.7383L46.2933 36.0906C47.3167 35.5783 47.9998 34.7864 48.3197 33.7413L48.4797 33.2186V21.2886V9.35856L44.9113 9.38098L41.3429 9.40339L41.2975 11.9367C41.2725 13.3301 41.244 14.4782 41.2341 14.4882C40.956 14.7697 40.8013 14.8565 40.5782 14.8565C40.2825 14.8565 40.1853 14.7894 39.0203 13.7818C38.579 13.4 37.7373 12.6757 37.15 12.1722L36.0822 11.2566L34.1939 12.8941C33.1554 13.7949 32.1917 14.6047 32.0524 14.6938C31.7096 14.913 31.3915 14.8981 31.1069 14.6494L30.8699 14.4422L30.8452 11.9013L30.8205 9.36045H16.1704H1.52027V21.2882ZM12.2183 13.3988C8.0027 14.0769 4.85659 17.2196 4.17415 21.4345L4.03649 22.2847L4.08446 23.3582C4.11242 23.9836 4.20464 24.7314 4.30541 25.1498C5.59088 30.4873 10.9583 33.67 16.1128 32.1512C19.823 31.058 22.4478 27.8742 22.9 23.9187L23.0038 23.0113L22.9035 22.0338C22.4683 17.7884 19.4897 14.3997 15.4152 13.5147C14.6881 13.3568 12.8861 13.2915 12.2183 13.3988ZM12.3733 14.9457C9.21216 15.4468 6.65025 17.7951 5.81883 20.9538L5.62677 21.6836V22.9288V24.174L5.81546 24.8902C5.91917 25.2842 6.12095 25.8722 6.26377 26.1969L6.5234 26.7873L7.13758 26.2427C7.47534 25.9431 7.91774 25.5819 8.12069 25.44C8.61402 25.0949 9.90194 24.4449 10.4519 24.2635C10.6957 24.1831 10.8953 24.0973 10.8953 24.073C10.8953 24.0487 10.8242 23.9262 10.7374 23.8008C10.4274 23.3532 10.2274 22.8599 10.1333 22.3098L10.0376 21.7515L10.128 21.2543C10.5583 18.8877 12.9892 17.6295 15.0689 18.6969C15.6412 18.9906 16.3062 19.6936 16.5943 20.3096L16.8354 20.8249L16.875 21.4998C16.9249 22.3495 16.795 22.946 16.4235 23.5734C16.263 23.8443 16.1318 24.0754 16.1318 24.087C16.1318 24.0986 16.3693 24.1956 16.6596 24.3025C17.8906 24.7558 19.0461 25.4668 19.8994 26.2958L20.4153 26.7972L20.4965 26.6879C20.6835 26.4358 21.0392 25.4831 21.2128 24.7689L21.3992 24.0023L21.3971 22.9288L21.3951 21.8554L21.2108 21.0888C20.6178 18.6223 18.8503 16.4768 16.6301 15.5283C15.3567 14.9843 13.6251 14.7473 12.3733 14.9457ZM36.2468 16.8316L27.181 16.8746L27.0196 17.0773C26.6515 17.5395 26.9369 18.2205 27.5454 18.3323C27.7016 18.3609 31.8475 18.3732 36.7586 18.3595L45.6879 18.3345L45.8802 18.1388L46.0726 17.9432V17.5623C46.0726 17.1332 45.9395 16.9481 45.5619 16.8521C45.4247 16.8172 41.2329 16.808 36.2468 16.8316ZM12.901 19.9598C12.4166 20.1356 12.0559 20.4581 11.8266 20.9205L11.6185 21.3401L11.6238 21.8124C11.6365 22.9457 12.5155 23.759 13.6484 23.6856L14.1695 23.6519L14.5165 23.4184C14.7073 23.29 14.966 23.0272 15.0916 22.8344L15.3197 22.4839L15.3552 21.9856C15.4009 21.3423 15.2615 20.9288 14.8431 20.4672L14.5057 20.0952L14.0787 19.9662C13.5622 19.8102 13.317 19.8089 12.901 19.9598ZM27.105 22.4069C26.9365 22.5783 26.8581 22.744 26.8581 22.9288C26.8581 23.1136 26.9365 23.2794 27.105 23.4507L27.3519 23.7017H36.4865H45.6211L45.868 23.4507C46.1999 23.1132 46.1999 22.7444 45.868 22.4069L45.6211 22.1559H36.4865H27.3519L27.105 22.4069ZM12.5422 25.3436C11.3622 25.492 9.85397 26.0885 8.91047 26.7798C8.34687 27.1928 7.51689 27.9954 7.51689 28.1276C7.51689 28.2581 8.47306 29.1762 8.97415 29.5267C9.17703 29.6686 9.64468 29.9386 10.0135 30.1267C12.5558 31.4236 15.5242 31.2159 17.9622 29.5706C18.5506 29.1735 19.5101 28.2766 19.5101 28.1237C19.5101 28.0633 19.2797 27.7971 18.9981 27.5319C17.7287 26.337 16.3032 25.6354 14.6115 25.3729C13.7322 25.2366 13.4274 25.2322 12.5422 25.3436ZM27.3877 27.5398C26.923 27.633 26.7011 28.3805 27.0195 28.7803L27.181 28.983L36.2677 29.026C41.2653 29.0496 45.4679 29.039 45.6068 29.0024C46.0934 28.8741 46.2637 28.181 45.9111 27.7641L45.7073 27.5232L36.6416 27.5126C31.6556 27.5068 27.4912 27.5191 27.3877 27.5398Z" fill="var(--fill-0, black)"/>
</svg>
