<svg preserveAspectRatio="none" width="100%" height="100%" overflow="visible" style="display: block;" viewBox="0 0 33 46" fill="none" xmlns="http://www.w3.org/2000/svg">
<path id="competition" fill-rule="evenodd" clip-rule="evenodd" d="M14.0386 0.0534053C10.5976 0.557247 7.35763 2.17903 4.85877 4.64852C3.53996 5.95183 2.62265 7.19844 1.7811 8.831C0.736958 10.8566 0.178017 12.948 0.0446404 15.3282L0 16.1251L0.0437054 16.8894C0.223787 20.0398 1.17296 22.7942 2.95422 25.3356C3.83741 26.5958 5.0965 27.9221 6.25384 28.8117L6.36202 28.8949L5.28593 31.1695C4.69407 32.4206 3.90683 34.0825 3.53646 34.8627C2.79946 36.4153 1.58299 38.9838 1.41206 39.3483C1.35273 39.4748 1.09023 40.0269 0.828693 40.5751L0.353189 41.5719L0.332856 41.7842L0.312523 41.9964L0.400596 42.198C0.548502 42.5364 0.867724 42.7423 1.24175 42.7406C1.32496 42.7402 2.35255 42.5621 3.52528 42.3449L5.65754 41.9501L5.95569 42.4703C6.29856 43.0684 6.91998 44.1539 7.46362 45.1045C7.69173 45.5033 7.8937 45.8086 7.97737 45.8809L8.11523 46H8.59287H9.07052L9.21297 45.8562C9.36104 45.7068 9.42749 45.5767 10.2946 43.738C10.9043 42.4453 11.5334 41.1161 11.9096 40.3259C12.0651 39.9991 12.662 38.7397 13.236 37.5272C13.81 36.3148 14.597 34.6537 14.9849 33.8359L15.6903 32.349L16.515 32.3407L17.3396 32.3324L18.2122 34.1726C18.6922 35.1848 20.1175 38.1941 21.3796 40.86L23.6744 45.7071L23.8144 45.8536L23.9544 46H24.448H24.9415L25.0765 45.8754C25.1633 45.7953 25.5819 45.1006 26.2489 43.9297C26.8195 42.9281 27.3093 42.0725 27.3373 42.0284L27.3882 41.9482L28.0827 42.078C30.7326 42.5733 31.6822 42.741 31.8372 42.7411C32.234 42.7414 32.6081 42.43 32.6926 42.0292L32.7355 41.8263L32.6903 41.6608C32.6655 41.5697 32.4564 41.0812 32.2257 40.5751C31.9951 40.0691 31.5478 39.0857 31.2318 38.3898C30.9158 37.694 30.2757 36.2879 29.8094 35.2653C29.343 34.2426 28.707 32.8452 28.3961 32.1599C28.0852 31.4746 27.6102 30.4312 27.3406 29.8411L26.8504 28.7684L26.8984 28.7269C26.9248 28.7042 27.1233 28.5362 27.3394 28.3538C27.8756 27.9012 28.897 26.8638 29.3217 26.3404C31.4876 23.6712 32.6988 20.6822 32.9681 17.3425C33.0341 16.5239 32.9929 14.8349 32.8881 14.0642C32.5411 11.5124 31.6568 9.19479 30.2258 7.08661C28.6035 4.6966 26.2925 2.72164 23.6681 1.48239C22.306 0.839226 21.0297 0.429504 19.4284 0.121379L18.8831 0.0164471L16.6433 0.00824274L14.4035 0L14.0386 0.0534053ZM15.5136 1.70329C15.4387 1.71165 15.1845 1.73745 14.9488 1.76065C14.3369 1.82084 13.7178 1.92953 13.0007 2.10263C9.15182 3.03195 5.8238 5.50128 3.80777 8.92367C1.56518 12.7307 1.23435 17.4085 2.91819 21.5018C3.66594 23.3196 4.71374 24.8683 6.16277 26.2976C7.54978 27.6657 9.0258 28.6539 10.7862 29.393C15.7188 31.4638 21.4386 30.697 25.6437 27.4012C27.8603 25.6639 29.5516 23.2835 30.4345 20.6584C30.7418 19.7447 30.9315 18.9263 31.0832 17.8597L31.1513 17.3804L31.1524 16.1345L31.1534 14.8885L31.0824 14.3709C30.6918 11.5267 29.64 9.11984 27.8336 6.93682C27.4057 6.41975 26.3665 5.39777 25.8363 4.97263C23.5852 3.16755 21.0569 2.11321 18.1235 1.75632C17.7912 1.71587 15.7691 1.67481 15.5136 1.70329ZM15.3383 4.75069C10.3095 5.25806 6.14493 8.98673 5.15209 13.8707C4.98225 14.7062 4.93858 15.1791 4.94131 16.1536C4.94645 17.9861 5.29364 19.465 6.10356 21.1044C7.74171 24.4201 10.9193 26.7616 14.5982 27.3639C18.0605 27.9307 21.5772 26.9386 24.1966 24.6563C26.1204 22.9799 27.4532 20.6704 27.9196 18.2047C28.1662 16.9013 28.1577 15.2082 27.8982 13.9119C27.2123 10.4857 24.941 7.53175 21.7652 5.93538C20.6406 5.37009 19.4562 5.00246 18.1103 4.80088C17.6373 4.73003 15.8618 4.69786 15.3383 4.75069ZM15.3019 6.57153C12.0392 7.00035 9.23825 8.96005 7.78296 11.8323C6.42002 14.5224 6.41094 17.6366 7.75818 20.3325C8.27957 21.3758 8.87388 22.1763 9.7404 23.0026C11.2487 24.4408 13.0395 25.3086 15.1631 25.6304L15.611 25.6983L16.5069 25.6984C17.6548 25.6988 18.337 25.6052 19.3195 25.313C22.2754 24.4336 24.6476 22.2292 25.6932 19.3901C27.0054 15.8275 26.0787 11.8638 23.3188 9.23355C21.8241 7.80917 20.0477 6.93345 17.9872 6.60516C17.7328 6.56463 17.2733 6.53833 16.6628 6.52932L15.7279 6.51556L15.3019 6.57153ZM15.9926 9.69377C15.8579 9.76975 15.7565 9.86422 15.6905 9.97506C15.6358 10.0668 15.2475 10.8562 14.8274 11.7293C14.4074 12.6023 14.05 13.331 14.0334 13.3487C14.0168 13.3664 13.1507 13.5159 12.1087 13.681L10.2143 13.9812L10.0496 14.0765C9.85882 14.1867 9.72844 14.347 9.6489 14.5688C9.57668 14.7703 9.57789 14.9278 9.65326 15.1454L9.71376 15.3202L10.1443 15.7369C10.3811 15.9661 10.5949 16.1709 10.6194 16.192C10.6439 16.213 11.0977 16.6332 11.6278 17.1255L12.5917 18.0207L12.5723 18.1031C12.5383 18.2483 12.0448 21.3976 12.0205 21.6252C11.9858 21.9489 12.0628 22.173 12.2832 22.3899C12.4795 22.5831 12.6534 22.652 12.9427 22.6509C13.1725 22.6501 13.1854 22.6439 15.0291 21.6515L16.6131 20.7989L18.3572 21.6679L20.1012 22.537L20.3296 22.5361C20.8471 22.5342 21.2398 22.1561 21.2398 21.6598C21.2398 21.5026 21.0073 20.2227 20.6256 18.2779L20.5535 17.9101L21.9127 16.5526C22.7723 15.6941 23.299 15.1388 23.3456 15.0418C23.4926 14.7365 23.4246 14.2891 23.1951 14.0511C22.9535 13.8006 23.0318 13.8166 20.4665 13.4916C19.6448 13.3875 18.9683 13.297 18.9632 13.2903C18.9411 13.2619 18.3637 12.16 17.8318 11.1313C17.5156 10.5198 17.2095 9.9598 17.1515 9.8868C17.0936 9.8138 16.9703 9.71462 16.8776 9.66636L16.7089 9.5786L16.4521 9.57894L16.1953 9.57933L15.9926 9.69377ZM15.9613 13.5869C15.6829 14.1679 15.4053 14.7032 15.3443 14.7765C15.155 15.0042 15.0196 15.0446 13.8148 15.2338C13.1959 15.331 12.6496 15.4225 12.6009 15.4373L12.5123 15.4642L13.4139 16.3038L14.3154 17.1434L14.3878 17.3003C14.4943 17.531 14.4804 17.7577 14.2862 18.9683C14.19 19.5675 14.1161 20.0625 14.1219 20.0682C14.1277 20.0738 14.6141 19.8187 15.2028 19.5012L16.2732 18.924L16.5469 18.9049L16.8206 18.8858L17.9479 19.4443C18.568 19.7514 19.0789 19.9992 19.0833 19.9949C19.0877 19.9906 18.9963 19.4885 18.8801 18.8792C18.6565 17.7067 18.6326 17.4443 18.7283 17.2187C18.7658 17.1304 19.1139 16.7557 19.6689 16.2061L20.55 15.3336L20.4567 15.3139C20.4053 15.303 19.8725 15.2328 19.2726 15.1579C18.6728 15.083 18.1088 14.9951 18.0195 14.9626C17.7453 14.863 17.5942 14.6474 17.0328 13.5554C16.7436 12.9928 16.498 12.532 16.4872 12.5315C16.4763 12.531 16.2396 13.006 15.9613 13.5869ZM24.8819 30.0969C23.4536 30.9528 21.6417 31.6438 19.8726 32.0073L19.2649 32.1321L19.7415 33.1332C20.0036 33.6838 21.0024 35.7905 21.9608 37.8148C22.9194 39.839 23.8264 41.754 23.9765 42.0703C24.1267 42.3866 24.3139 42.7818 24.3927 42.9485L24.5359 43.2517L25.3299 41.8585C25.7666 41.0922 26.1773 40.4053 26.2427 40.332C26.3977 40.1582 26.6254 40.0594 26.8732 40.0584C26.9828 40.0579 27.7707 40.1873 28.6239 40.3458C29.4772 40.5043 30.1887 40.6294 30.205 40.6237C30.2214 40.6181 30.1756 40.4841 30.1034 40.3259C29.9671 40.0276 28.6447 37.1181 27.7947 35.2461C27.5265 34.6557 27.2715 34.095 27.2279 34.0001C26.9417 33.3773 25.9733 31.2478 25.6897 30.6177C25.5025 30.2017 25.3318 29.8619 25.3104 29.8624C25.289 29.863 25.0962 29.9685 24.8819 30.0969ZM7.5936 30.5646C7.43132 30.9043 7.22129 31.3461 7.1269 31.5465C6.88839 32.0526 4.77778 36.5095 3.70914 38.7636C3.22179 39.7916 2.83132 40.6326 2.84141 40.6326C2.8515 40.6326 3.55823 40.5032 4.41193 40.3451C5.26564 40.187 6.05908 40.0576 6.1752 40.0576C6.43046 40.0576 6.67501 40.1727 6.83008 40.3658C6.91488 40.4713 8.05586 42.4383 8.41571 43.0991L8.49576 43.2462L8.53374 43.1758C8.55466 43.1371 9.18037 41.8202 9.92422 40.2493C10.6681 38.6783 11.836 36.2131 12.5195 34.7709C13.2031 33.3287 13.7572 32.1436 13.7509 32.1374C13.7446 32.1312 13.5207 32.0817 13.2534 32.0273C12.2957 31.8325 11.2976 31.5399 10.4107 31.1939C9.82707 30.9661 8.73595 30.443 8.24405 30.155L7.88868 29.9469L7.5936 30.5646Z" fill="var(--fill-0, white)"/>
</svg>
