<svg width="27" height="22" viewBox="0 0 27 22" fill="none" xmlns="http://www.w3.org/2000/svg">
<g clip-path="url(#clip0_tow_membership_gradient)">
<path fill-rule="evenodd" clip-rule="evenodd" d="M12.7633 0.24918C12.5544 0.375252 11.2278 1.86453 9.81538 3.55852L7.24745 6.63833L6.38799 6.09816C5.91542 5.80104 4.8261 5.0967 3.96735 4.53294C3.1086 3.96918 2.18393 3.43515 1.91267 3.34619C1.19812 3.11198 0.188028 3.67476 0.0102817 4.40613C-0.0758553 4.76002 0.388142 8.47707 1.06772 12.8788L2.2784 20.7208L2.89777 21.3605L3.51691 22H13.5H23.4831L24.1022 21.3605L24.7216 20.7208L25.9323 12.8788C26.6119 8.47707 27.0759 4.76002 26.9897 4.40613C26.811 3.67132 25.8009 3.11223 25.0788 3.34889C24.803 3.43957 23.7032 4.09574 22.6353 4.8072C21.5674 5.51891 20.4795 6.21931 20.2182 6.36382L19.7428 6.62653L17.1756 3.54771C14.1634 -0.0651412 13.7703 -0.358819 12.7633 0.24918ZM12.4621 3.39976C11.9567 4.03307 10.7439 5.46362 9.76732 6.57885L7.99128 8.60634H7.30789C6.88197 8.60634 5.75957 8.04355 4.32974 7.11337C3.06767 6.29206 2.0019 5.65629 1.96121 5.70028C1.92052 5.74427 2.22462 7.88136 2.63722 10.4495L3.38723 15.1189H13.5H23.6128L24.3628 10.4495C24.7754 7.88136 25.0792 5.74378 25.0381 5.6993C24.9969 5.65481 23.9404 6.29083 22.6905 7.11239C21.2252 8.0755 20.1673 8.60634 19.713 8.60634H19.0087L17.2327 6.57885C16.2561 5.46362 15.0433 4.03307 14.5379 3.39976C14.0325 2.76621 13.5654 2.24815 13.5 2.24815C13.4346 2.24815 12.9675 2.76621 12.4621 3.39976ZM3.86789 18.498C3.96069 19.2077 4.08418 19.8713 4.14224 19.9725C4.20054 20.0738 8.41149 20.1568 13.5 20.1568C18.5885 20.1568 22.7995 20.0738 22.8578 19.9725C22.9158 19.8713 23.0393 19.2077 23.1321 18.498L23.3006 17.2078H13.5H3.69942L3.86789 18.498Z" fill="url(#tow_membership_gradient)"/>
</g>
<defs>
<linearGradient id="tow_membership_gradient" x1="1.5" y1="1.5" x2="25.5" y2="21" gradientUnits="userSpaceOnUse">
<stop stop-color="#5F91F0"/>
<stop offset="0.55" stop-color="#2757A6"/>
<stop offset="1" stop-color="#14366F"/>
</linearGradient>
<clipPath id="clip0_tow_membership_gradient">
<rect width="27" height="22" fill="white"/>
</clipPath>
</defs>
</svg>
