<svg preserveAspectRatio="xMidYMid meet" width="100%" height="100%" overflow="visible" style="display: block;" viewBox="0 0 22 30" fill="none" xmlns="http://www.w3.org/2000/svg">
<path id="competition" fill-rule="evenodd" clip-rule="evenodd" d="M9.35909 0.0348295C7.06507 0.363422 4.90508 1.42111 3.23918 3.03164C2.35998 3.88163 1.74843 4.69464 1.1874 5.75935C0.491306 7.08037 0.118678 8.44435 0.0297603 9.99665L0 10.5164L0.029137 11.0149C0.149191 13.0694 0.781975 14.8658 1.96948 16.5232C2.55827 17.3451 3.39767 18.2101 4.16923 18.7902L4.24134 18.8445L3.52395 20.3279C3.12938 21.1439 2.60455 22.2277 2.35764 22.7366C1.86631 23.7491 1.05532 25.4242 0.941373 25.6619C0.901822 25.7444 0.726817 26.1045 0.552462 26.462L0.23546 27.1121L0.221904 27.2506L0.208348 27.389L0.267064 27.5204C0.365668 27.7411 0.578483 27.8754 0.827836 27.8743C0.883306 27.874 1.56837 27.7579 2.35019 27.6163L3.7717 27.3587L3.97046 27.698C4.19904 28.0881 4.61332 28.796 4.97575 29.416C5.12782 29.6761 5.26247 29.8752 5.31825 29.9223L5.41015 30H5.72858H6.04701L6.14198 29.9062C6.24069 29.8088 6.28499 29.7239 6.86309 28.5248C7.26953 27.6817 7.68895 26.8148 7.93971 26.2995C8.04342 26.0864 8.44135 25.265 8.824 24.4743C9.20665 23.6836 9.73133 22.6002 9.98995 22.0669L10.4602 21.0971L11.01 21.0917L11.5597 21.0863L12.1415 22.2865C12.4615 22.9466 13.4117 24.9092 14.2531 26.6478L15.7829 29.809L15.8763 29.9045L15.9696 30H16.2987H16.6277L16.7177 29.9187C16.7755 29.8665 17.0546 29.4134 17.4993 28.6498C17.8797 27.9966 18.2062 27.4386 18.2249 27.4098L18.2588 27.3575L18.7218 27.4422C20.4884 27.7652 21.1214 27.8746 21.2248 27.8746C21.4893 27.8748 21.7387 27.6717 21.7951 27.4104L21.8236 27.278L21.7935 27.1701C21.777 27.1107 21.6376 26.7921 21.4838 26.462C21.3301 26.132 21.0318 25.4907 20.8212 25.0369C20.6106 24.583 20.1838 23.6661 19.8729 22.9991C19.562 22.3321 19.138 21.4208 18.9308 20.9738C18.7235 20.5269 18.4068 19.8464 18.2271 19.4616L17.9002 18.762L17.9323 18.735C17.9499 18.7201 18.0822 18.6106 18.2263 18.4916C18.5838 18.1964 19.2647 17.5199 19.5478 17.1785C20.9917 15.4378 21.7992 13.4884 21.9788 11.3103C22.0227 10.7765 21.9953 9.67496 21.9254 9.17229C21.6941 7.5081 21.1046 5.9966 20.1505 4.6217C19.069 3.063 17.5283 1.77498 15.7787 0.966776C14.8707 0.547321 14.0198 0.280111 12.9523 0.0791603L12.5887 0.0107264L11.0955 0.0053757L9.60231 0L9.35909 0.0348295ZM10.3424 1.11084C10.2924 1.1163 10.123 1.13312 9.96588 1.14825C9.55791 1.1875 9.14518 1.25839 8.66715 1.37128C6.10121 1.97736 3.88253 3.58779 2.53851 5.81978C1.04346 8.3026 0.822902 11.3534 1.94546 14.0229C2.44396 15.2084 3.1425 16.2185 4.10851 17.1506C5.03319 18.0428 6.0172 18.6873 7.19081 19.1693C10.4792 20.5199 14.2924 20.0198 17.0958 17.8704C18.5735 16.7373 19.7011 15.1849 20.2897 13.4729C20.4945 12.877 20.621 12.3433 20.7221 11.6476L20.7676 11.3351L20.7682 10.5225L20.7689 9.70986L20.7216 9.37232C20.4612 7.5174 19.76 5.94772 18.5557 4.52401C18.2705 4.18679 17.5776 3.52028 17.2242 3.24302C15.7234 2.06579 14.0379 1.37818 12.0823 1.14542C11.8608 1.11905 10.5128 1.09227 10.3424 1.11084ZM10.2256 3.09828C6.87301 3.42917 4.09662 5.86091 3.43472 9.04613C3.3215 9.59097 3.29239 9.89944 3.29421 10.535C3.29763 11.7301 3.5291 12.6946 4.06904 13.7637C5.16114 15.9262 7.27952 17.4532 9.73216 17.846C12.0404 18.2157 14.3848 17.5687 16.131 16.0802C17.4136 14.9869 18.3021 13.4807 18.6131 11.8726C18.7774 11.0226 18.7718 9.91836 18.5988 9.07295C18.1415 6.83849 16.6273 4.91201 14.5101 3.8709C13.7604 3.50223 12.9708 3.26247 12.0735 3.13101C11.7582 3.0848 10.5745 3.06382 10.2256 3.09828ZM10.2013 4.28578C8.0261 4.56544 6.15884 5.84351 5.18864 7.71673C4.28001 9.47111 4.27396 11.5021 5.17212 13.2603C5.51972 13.9407 5.91592 14.4628 6.4936 15.0017C7.49912 15.9397 8.69299 16.5056 10.1087 16.7154L10.4073 16.7597L11.0046 16.7599C11.7699 16.7601 12.2247 16.6991 12.8796 16.5084C14.8503 15.9349 16.4317 14.4973 17.1288 12.6457C18.0036 10.3223 17.3858 7.73723 15.5458 6.02188C14.5494 5.09294 13.3652 4.52181 11.9915 4.30771C11.8219 4.28128 11.5155 4.26413 11.1085 4.25825L10.4853 4.24928L10.2013 4.28578ZM10.6617 6.32202C10.5719 6.37158 10.5043 6.43319 10.4603 6.50547C10.4239 6.56533 10.165 7.08014 9.88493 7.64952C9.60491 8.21889 9.3667 8.69416 9.35561 8.70568C9.34452 8.71721 8.76713 8.81475 8.07248 8.92241L6.80951 9.11819L6.69972 9.18029C6.57255 9.25223 6.48563 9.35674 6.4326 9.50141C6.38445 9.6328 6.38526 9.73549 6.43551 9.87746L6.47584 9.99145L6.76287 10.2632C6.92074 10.4127 7.06328 10.5462 7.07962 10.56C7.09595 10.5737 7.39849 10.8477 7.75187 11.1688L8.39445 11.7527L8.38154 11.8064C8.35884 11.9011 8.02987 13.955 8.01364 14.1034C7.99055 14.3145 8.04187 14.4606 8.18877 14.6021C8.31968 14.7281 8.43561 14.773 8.62848 14.7723C8.78167 14.7718 8.79026 14.7678 10.0194 14.1206L11.0754 13.5645L12.2381 14.1313L13.4008 14.698L13.5531 14.6975C13.898 14.6962 14.1599 14.4496 14.1599 14.126C14.1599 14.0234 14.0049 13.1887 13.7504 11.9203L13.7023 11.6805L14.6084 10.7952C15.1815 10.2353 15.5326 9.87313 15.5638 9.80988C15.6617 9.61075 15.6164 9.31896 15.4634 9.16374C15.3024 9.00037 15.3546 9.01085 13.6443 8.79889C13.0965 8.73101 12.6456 8.67193 12.6421 8.6676C12.6274 8.64905 12.2424 7.93046 11.8878 7.25954C11.677 6.86074 11.473 6.49552 11.4343 6.44791C11.3957 6.40031 11.3135 6.33562 11.2517 6.30414L11.1393 6.24691L10.9681 6.24714L10.7969 6.24739L10.6617 6.32202ZM10.6409 8.86105C10.4553 9.23993 10.2702 9.58905 10.2295 9.63688C10.1033 9.78532 10.0131 9.81173 9.20987 9.93509C8.79728 9.99845 8.43309 10.0582 8.4006 10.0678L8.34152 10.0853L8.94257 10.6329L9.54362 11.1805L9.59187 11.2828C9.66285 11.4332 9.65363 11.5811 9.52415 12.3707C9.46003 12.7614 9.41074 13.0842 9.41461 13.0879C9.41845 13.0916 9.74273 12.9253 10.1352 12.7182L10.8488 12.3418L11.0313 12.3293L11.2137 12.3169L11.9653 12.681C12.3787 12.8814 12.7193 13.0429 12.7222 13.0401C12.7252 13.0373 12.6642 12.7099 12.5867 12.3125C12.4377 11.5479 12.4217 11.3767 12.4856 11.2296C12.5105 11.172 12.7426 10.9276 13.1126 10.5692L13.7 10.0002L13.6378 9.9873C13.6035 9.98022 13.2483 9.93444 12.8484 9.88559C12.4485 9.83673 12.0726 9.77942 12.013 9.75824C11.8302 9.69326 11.7295 9.55267 11.3552 8.8405C11.1624 8.47355 10.9987 8.17306 10.9914 8.17274C10.9842 8.17241 10.8264 8.48215 10.6409 8.86105ZM16.5879 19.6284C15.6357 20.1866 14.4278 20.6373 13.2484 20.8743L12.8433 20.9557L13.161 21.6086C13.3358 21.9677 14.0016 23.3416 14.6406 24.6618C15.2796 25.982 15.8843 27.2309 15.9844 27.4372C16.0844 27.6434 16.2093 27.9012 16.2618 28.0099L16.3573 28.2076L16.8866 27.299C17.1777 26.7992 17.4516 26.3513 17.4951 26.3035C17.5985 26.1902 17.7502 26.1257 17.9155 26.125C17.9886 26.1247 18.5138 26.2091 19.0826 26.3125C19.6514 26.4159 20.1258 26.4974 20.1367 26.4937C20.1476 26.4901 20.1171 26.4027 20.0689 26.2995C19.9781 26.105 19.0965 24.2074 18.5298 22.9866C18.351 22.6015 18.181 22.2359 18.1519 22.174C17.9611 21.7678 17.3155 20.379 17.1265 19.968C17.0017 19.6968 16.8879 19.4751 16.8736 19.4755C16.8593 19.4759 16.7308 19.5447 16.5879 19.6284ZM5.0624 19.9334C4.95422 20.155 4.81419 20.4431 4.75127 20.5738C4.59226 20.9039 3.18519 23.8105 2.47276 25.2806C2.14786 25.951 1.88755 26.4995 1.89428 26.4995C1.901 26.4995 2.37215 26.4152 2.94129 26.312C3.51042 26.2089 4.03938 26.1245 4.1168 26.1245C4.28697 26.1245 4.45 26.1996 4.55339 26.3255C4.60992 26.3944 5.37058 27.6771 5.61048 28.1081L5.66384 28.204L5.68916 28.1581C5.70311 28.1329 6.12025 27.274 6.61615 26.2495C7.11205 25.225 7.89065 23.6172 8.34635 22.6766C8.80208 21.7361 9.17149 20.9632 9.16728 20.9592C9.16307 20.9551 9.01383 20.9228 8.83563 20.8874C8.19716 20.7603 7.53171 20.5695 6.9405 20.3438C6.55138 20.1953 5.82397 19.8541 5.49603 19.6663L5.25912 19.5306L5.0624 19.9334Z" fill="#000000"/>
</svg>

