<svg width="23" height="23" viewBox="0 0 23 23" fill="none" xmlns="http://www.w3.org/2000/svg">
<g clip-path="url(#clip0_239_2445)">
<path fill-rule="evenodd" clip-rule="evenodd" d="M4.07125 0.351316C3.98529 0.432611 3.91515 0.825171 3.91515 1.22382V1.94829L3.17021 1.94916C1.61316 1.9509 0.24406 3.34834 0.250019 4.9301C0.256208 6.60272 2.19673 9.01068 4.84805 10.6357C5.68468 11.1485 6.52567 11.8936 6.94467 12.4935C7.32952 13.0445 8.04307 13.799 8.53038 14.1705L9.41629 14.8456V16.2943H7.37216C6.24786 16.2943 5.16483 16.3537 4.96541 16.4263L4.60279 16.5582V19.7722H4.19021C3.96329 19.7722 3.65385 19.8895 3.50257 20.033C3.2172 20.3036 3.12276 22.3034 3.36664 22.9061L3.50578 23.25H18.9942L19.1334 22.9061C19.3772 22.3034 19.2828 20.3036 18.9974 20.033C18.8462 19.8895 18.5367 19.7722 18.3098 19.7722H17.8972V16.5582L17.5346 16.4263C17.3352 16.3537 16.2521 16.2943 15.1278 16.2943H13.0837V14.8456L13.9696 14.1705C14.4569 13.799 15.1705 13.0445 15.5553 12.4935C15.9743 11.8936 16.8153 11.1485 17.6519 10.6357C20.3033 9.01068 22.2438 6.60272 22.25 4.9301C22.2559 3.35442 20.8873 1.9509 19.3435 1.94916L18.6126 1.94829L18.4702 0.31806L11.3488 0.260676C7.43198 0.229158 4.15697 0.269805 4.07125 0.351316ZM5.19508 2.43736C5.69958 7.56716 6.77826 10.6761 8.76142 12.7163C9.26799 13.2373 10.0349 13.7742 10.4661 13.9092L11.25 14.1544L12.0339 13.9092C12.4651 13.7742 13.232 13.2373 13.7386 12.7163C15.7217 10.6761 16.8004 7.56716 17.3049 2.43736L17.4172 1.2962H5.08277L5.19508 2.43736ZM2.35352 3.37594C1.57236 3.89914 1.34245 4.65578 1.64318 5.71435L1.89807 6.61228L3.49821 8.10275C4.37816 8.92265 5.14099 9.55279 5.19325 9.50323C5.24551 9.45367 5.07704 8.62116 4.81894 7.65302C4.56062 6.68488 4.27754 5.2744 4.18952 4.51841L4.02976 3.1438L3.45672 3.08228C3.14155 3.04837 2.64508 3.18053 2.35352 3.37594ZM18.4822 3.30682C18.4336 3.45637 18.3357 4.11824 18.2644 4.77772C18.1931 5.43743 17.9265 6.74965 17.6719 7.69388C17.4172 8.6379 17.2524 9.45171 17.3054 9.50192C17.3583 9.55213 18.112 8.92482 18.9802 8.10753L20.5586 6.62163L20.835 5.71848C21.1592 4.66013 20.9384 3.90501 20.1529 3.38311C19.5283 2.96838 18.6059 2.92621 18.4822 3.30682ZM10.5624 16.2943H11.9376V15.2075H10.5624V16.2943ZM5.74886 19.7722H16.7511V17.5985H5.74886V19.7722ZM4.60279 22.1632H17.8972V21.0764H4.60279V22.1632Z" fill="black"/>
<path d="M11.3506 0.0106883L18.6992 0.0702586L18.7197 0.295845L18.8408 1.69819L19.3438 1.69916C21.0305 1.70106 22.5063 3.22159 22.5 4.93061C22.4966 5.8516 21.9679 6.9278 21.1377 7.95795C20.3009 8.99633 19.13 10.0225 17.7822 10.8486C16.9656 11.3491 16.1546 12.0729 15.7608 12.6367C15.3625 13.2069 14.6309 13.9805 14.1211 14.3691L13.334 14.9687V16.0439H15.1279C15.6938 16.0439 16.2501 16.0588 16.6914 16.083C16.9117 16.095 17.1058 16.1095 17.2588 16.1259C17.4005 16.1411 17.5368 16.161 17.6201 16.1914L17.9824 16.3232L18.1475 16.3828V19.5224H18.3096C18.4612 19.5224 18.6261 19.5604 18.7705 19.6152C18.9138 19.6695 19.0622 19.7494 19.1699 19.8515C19.2497 19.9272 19.2977 20.0349 19.3301 20.1249C19.3654 20.2232 19.395 20.3393 19.419 20.4638C19.467 20.7138 19.4989 21.0207 19.5137 21.333C19.5285 21.6459 19.5268 21.9714 19.5049 22.2597C19.4836 22.541 19.4415 22.8116 19.3653 22.9999L19.2256 23.3437L19.1631 23.4999H3.33693L3.27443 23.3437L3.13479 22.9999C3.05858 22.8116 3.01649 22.541 2.99514 22.2597C2.97326 21.9714 2.97156 21.6459 2.98635 21.333C3.00112 21.0207 3.03301 20.7138 3.08107 20.4638C3.10503 20.3393 3.1346 20.2232 3.16994 20.1249C3.20235 20.0349 3.25038 19.9272 3.3301 19.8515C3.43781 19.7494 3.58626 19.6695 3.72951 19.6152C3.87398 19.5604 4.0388 19.5224 4.19045 19.5224H4.35256V16.3828L4.5176 16.3232L4.8799 16.1914C4.9632 16.161 5.0995 16.1411 5.24123 16.1259C5.39422 16.1095 5.58835 16.095 5.80861 16.083C6.24992 16.0588 6.80621 16.0439 7.37209 16.0439H9.16604V14.9687L8.37893 14.3691C7.86918 13.9805 7.13753 13.2069 6.73928 12.6367C6.34545 12.0729 5.53443 11.3491 4.71779 10.8486C3.37003 10.0225 2.19917 8.99633 1.36232 7.95795C0.532142 6.9278 0.00342748 5.8516 1.97638e-05 4.93061C-0.00623076 3.21439 1.471 1.70107 3.16994 1.69916L3.66506 1.69819V1.22358C3.66507 1.0113 3.68378 0.798935 3.71486 0.624946C3.73037 0.53825 3.75027 0.455222 3.77443 0.384712C3.79474 0.325492 3.83077 0.234892 3.89943 0.169868L3.94533 0.134712C3.9592 0.126394 3.97076 0.121073 3.97756 0.11811C3.99454 0.110736 4.01063 0.105521 4.0215 0.102485C4.04309 0.0964755 4.06523 0.0928164 4.084 0.0897899C4.12283 0.0835465 4.17186 0.0777886 4.22658 0.0731883C4.33754 0.0638709 4.49252 0.0562049 4.68361 0.0487743C5.06717 0.0338666 5.61021 0.0218332 6.27053 0.013618C7.59168 -0.00281631 9.39122 -0.00507728 11.3506 0.0106883ZM11.3487 0.260688C7.43191 0.229173 4.15703 0.269998 4.07131 0.351509C3.98541 0.433001 3.91508 0.825151 3.91506 1.22358V1.94819L3.16994 1.94916C1.61314 1.95107 0.244298 3.34814 0.25002 4.92963C0.256208 6.6022 2.19649 9.01067 4.84768 10.6357C5.68413 11.1483 6.52526 11.8933 6.94436 12.4931C7.32921 13.0441 8.04298 13.7994 8.53029 14.1708L9.41604 14.8456V16.2939H7.37209C6.24822 16.2939 5.1658 16.3541 4.96584 16.4267L4.60256 16.5585V19.7724H4.19045C3.96357 19.7724 3.65426 19.8897 3.50295 20.0331C3.21759 20.3038 3.12237 22.3034 3.36623 22.9062L3.50588 23.2499H18.9942L19.1338 22.9062C19.3777 22.3034 19.2825 20.3038 18.9971 20.0331C18.8458 19.8897 18.5365 19.7724 18.3096 19.7724H17.8975V16.5585L17.5342 16.4267C17.3342 16.3541 16.2518 16.2939 15.1279 16.2939H13.084V14.8456L13.9697 14.1708C14.4571 13.7994 15.1708 13.0441 15.5557 12.4931C15.9748 11.8933 16.8159 11.1483 17.6524 10.6357C20.3035 9.01067 22.2438 6.6022 22.25 4.92963C22.2557 3.35419 20.8873 1.95103 19.3438 1.94916L18.6123 1.94819L18.4707 0.318306L11.3487 0.260688ZM17.8975 21.0761V22.163H4.60256V21.0761H17.8975ZM4.85256 21.913H17.6475V21.3261H4.85256V21.913ZM16.751 17.5986V19.7724H5.74904V17.5986H16.751ZM5.99904 19.5224H16.501V17.8486H5.99904V19.5224ZM11.9375 15.207V16.2939H10.5625V15.207H11.9375ZM10.8125 16.0439H11.6875V15.457H10.8125V16.0439ZM17.417 1.29584L17.3047 2.43745C16.8002 7.56707 15.7214 10.6756 13.7383 12.7158C13.2318 13.2367 12.4654 13.774 12.0342 13.9091L11.25 14.1542L10.4658 13.9091C10.0346 13.774 9.2682 13.2367 8.76174 12.7158C6.77866 10.6756 5.69983 7.56706 5.19533 2.43745L5.08303 1.29584H17.417ZM5.44436 2.41303C5.94728 7.52659 7.01807 10.5642 8.94045 12.5419C9.18115 12.7895 9.48712 13.0443 9.78518 13.2529C10.0881 13.4649 10.3628 13.615 10.541 13.6708L11.25 13.8925L11.959 13.6708C12.1373 13.615 12.412 13.4649 12.7149 13.2529C13.0129 13.0443 13.3189 12.7895 13.5596 12.5419C15.482 10.5642 16.5528 7.52659 17.0557 2.41303L17.1406 1.54584H5.35939L5.44436 2.41303ZM3.45705 3.08198L4.02932 3.1435L4.18947 4.5185C4.27751 5.27453 4.56105 6.68518 4.81936 7.65327C5.07705 8.61997 5.24498 9.45132 5.19338 9.50288C5.14112 9.55244 4.37802 8.92238 3.49807 8.10249L1.89846 6.61225L1.64357 5.71381C1.343 4.65544 1.57247 3.89906 2.35354 3.37592C2.6451 3.18051 3.14188 3.04807 3.45705 3.08198ZM18.4824 3.30659C18.6065 2.92624 19.5289 2.96811 20.1533 3.38276C20.9387 3.90465 21.1591 4.66042 20.835 5.7187L20.5586 6.62202L18.9805 8.10737C18.1132 8.92378 17.3601 9.5506 17.3057 9.5019C17.2527 9.4517 17.4173 8.63812 17.6719 7.69428C17.9266 6.75005 18.1934 5.43699 18.2647 4.77729C18.3359 4.11794 18.4339 3.4561 18.4824 3.30659ZM3.42971 3.331C3.31338 3.31854 3.1435 3.33615 2.96096 3.38471C2.77968 3.43297 2.61001 3.50566 2.49318 3.58393C2.14205 3.81922 1.92993 4.09482 1.83205 4.41694C1.73279 4.7437 1.74179 5.14654 1.88381 5.64643L2.11916 6.47749L3.66897 7.91987C4.10638 8.32742 4.51314 8.68671 4.81545 8.93647C4.83739 8.95459 4.85924 8.9714 4.8799 8.98823C4.87888 8.98313 4.87899 8.97777 4.87795 8.9726C4.81137 8.64354 4.70525 8.19818 4.57717 7.71772C4.31663 6.74129 4.03119 5.31784 3.94143 4.54682L3.80373 3.37104L3.42971 3.331ZM19.1182 3.29682C18.9774 3.2904 18.8675 3.3068 18.7959 3.33393C18.7618 3.3469 18.7419 3.35983 18.7315 3.36909C18.7228 3.37693 18.7204 3.38192 18.7197 3.38374C18.7034 3.43419 18.6695 3.61379 18.6289 3.88764C18.59 4.15068 18.548 4.47785 18.5127 4.80463C18.4395 5.48174 18.1697 6.80731 17.9131 7.75874C17.7868 8.22693 17.6833 8.66113 17.6182 8.98237L17.6172 8.9853C17.6363 8.96963 17.6566 8.95424 17.6768 8.93745C17.9753 8.68893 18.3771 8.33188 18.8086 7.92573L20.3379 6.4853L20.5957 5.64545C20.7488 5.14543 20.7647 4.74435 20.6699 4.41987C20.5766 4.10031 20.3677 3.82636 20.0147 3.59174C19.742 3.41068 19.3993 3.30967 19.1182 3.29682Z" fill="black"/>
</g>
<defs>
<clipPath id="clip0_239_2445">
<rect width="23" height="23" fill="white"/>
</clipPath>
</defs>
</svg>
