<svg preserveAspectRatio="none" width="100%" height="100%" overflow="visible" style="display: block;" viewBox="0 0 15 15" fill="none" xmlns="http://www.w3.org/2000/svg">
<g id="tiktok-fill-svgrepo-com 1">
<path id="Vector" d="M10.5136 3.209C10.0554 2.68371 9.78 1.99878 9.78 1.25H9.20581C9.35369 2.06844 9.84088 2.77079 10.5136 3.209Z" fill="var(--fill-0, black)"/>
<path id="Vector_2" d="M5.20113 7.4405C4.20649 7.4405 3.39744 8.25025 3.39744 9.24569C3.39744 9.93938 3.79182 10.543 4.36598 10.8448C4.15139 10.5488 4.0238 10.1861 4.0238 9.79131C4.0238 8.79587 4.83284 7.98612 5.8275 7.98612C6.01308 7.98612 6.19285 8.018 6.36106 8.07025V5.8762C6.18704 5.85296 6.01018 5.83843 5.8275 5.83843C5.79559 5.83843 5.76659 5.84134 5.73469 5.84134V7.52463C5.5636 7.47238 5.38671 7.4405 5.20113 7.4405Z" fill="var(--fill-0, black)"/>
<path id="Vector_3" d="M12.1403 4.17255V5.84134C11.0268 5.84134 9.9945 5.48438 9.1535 4.88069V9.24856C9.1535 11.4282 7.38175 13.2044 5.20108 13.2044C4.36013 13.2044 3.57719 12.9374 2.93633 12.4875C3.65838 13.2624 4.68781 13.75 5.82745 13.75C8.00519 13.75 9.77987 11.9767 9.77987 9.79419V5.42632C10.6208 6.03001 11.6531 6.38694 12.7667 6.38694V4.23933C12.5492 4.23933 12.3404 4.21609 12.1403 4.17255Z" fill="var(--fill-0, black)"/>
<path id="Vector_4" d="M9.1535 9.24856V4.88069C9.9945 5.48438 11.0268 5.84134 12.1403 5.84134V4.17255C11.4966 4.03618 10.9312 3.68789 10.5136 3.209C9.84087 2.77079 9.3565 2.06844 9.20281 1.25H7.63112L7.62819 9.86094C7.59344 10.8245 6.79887 11.5994 5.82746 11.5994C5.22427 11.5994 4.69361 11.3005 4.36303 10.8477C3.78887 10.543 3.3945 9.94225 3.3945 9.24856C3.3945 8.25312 4.20354 7.44337 5.19817 7.44337C5.38376 7.44337 5.56355 7.47531 5.73174 7.52756V5.84424C3.59749 5.89068 1.875 7.64362 1.875 9.79419C1.875 10.8332 2.27808 11.7794 2.93633 12.4875C3.57719 12.9374 4.36013 13.2044 5.20107 13.2044C7.37881 13.2044 9.1535 11.4282 9.1535 9.24856Z" fill="var(--fill-0, black)"/>
</g>
</svg>
