<svg preserveAspectRatio="none" width="100%" height="100%" overflow="visible" style="display: block;" viewBox="0 0 15 15" fill="none" xmlns="http://www.w3.org/2000/svg">
<g id="discord-svgrepo-com 1">
<path id="Vector" d="M9.84 9.45141C9.13172 9.405 8.57484 8.81906 8.57484 8.10281C8.57484 8.07891 8.57531 8.055 8.57672 8.03109V8.03437C8.57531 8.01187 8.57438 7.98563 8.57438 7.95891C8.57438 7.24406 9.13219 6.66 9.83625 6.61734H9.84C10.5473 6.65578 11.1061 7.23844 11.1061 7.95188C11.1061 7.98094 11.1052 8.00953 11.1033 8.03813V8.03437C11.1047 8.05781 11.1056 8.08547 11.1056 8.11313C11.1056 8.82703 10.5473 9.41063 9.84328 9.45094H9.83953L9.84 9.45141ZM5.16844 9.45141C4.46016 9.405 3.90328 8.81906 3.90328 8.10281C3.90328 8.07891 3.90375 8.055 3.90516 8.03109V8.03437C3.90375 8.01187 3.90281 7.98563 3.90281 7.95891C3.90281 7.24406 4.46062 6.66 5.16469 6.61734H5.16844C5.87578 6.65578 6.43453 7.23844 6.43453 7.95188C6.43453 7.98094 6.43359 8.00953 6.43172 8.03813V8.03437C6.43312 8.05687 6.43406 8.08313 6.43406 8.10984C6.43406 8.82469 5.87625 9.40875 5.17219 9.45141H5.16844ZM12.3717 3.03047C11.5453 2.64047 10.5853 2.33203 9.58031 2.15344L9.51047 2.14312C9.50813 2.14266 9.50531 2.14219 9.5025 2.14219C9.48609 2.14219 9.47203 2.15109 9.46453 2.16422C9.35484 2.35688 9.23578 2.59734 9.12844 2.84391L9.10828 2.89594C8.62547 2.81859 8.06859 2.77453 7.50141 2.77453C6.93422 2.77453 6.37734 2.81859 5.83406 2.90344L5.89453 2.89547C5.76797 2.60016 5.64703 2.36016 5.51344 2.12766L5.53266 2.16375C5.52469 2.15016 5.51016 2.14172 5.49375 2.14172C5.49141 2.14172 5.48859 2.14172 5.48625 2.14219C4.41141 2.33109 3.45141 2.63906 2.55422 3.05953L2.625 3.02953C2.61703 3.03281 2.61047 3.03844 2.60625 3.04547C1.26844 4.93969 0.467813 7.29656 0.467813 9.84047C0.467813 10.2656 0.490313 10.6852 0.533906 11.0986L0.529687 11.047C0.531094 11.0606 0.538125 11.0719 0.547969 11.0798C1.55109 11.8303 2.71734 12.435 3.97594 12.832L4.05844 12.8545C4.06219 12.8559 4.06687 12.8564 4.07156 12.8564C4.08656 12.8564 4.09969 12.8494 4.10766 12.8386C4.35844 12.5011 4.59703 12.1186 4.80375 11.7173L4.82578 11.6705C4.82859 11.6648 4.83047 11.6578 4.83047 11.6503C4.83047 11.6311 4.81828 11.6152 4.80141 11.6086H4.80094C4.37344 11.4436 4.01203 11.2678 3.66797 11.0663L3.70406 11.0859C3.69047 11.078 3.68156 11.0634 3.68156 11.047C3.68156 11.0325 3.68859 11.0194 3.69938 11.0114C3.77297 10.9561 3.84703 10.8989 3.91734 10.8408C3.92484 10.8347 3.93469 10.8309 3.945 10.8309C3.95156 10.8309 3.95766 10.8323 3.96281 10.8347H3.96234C4.99734 11.332 6.21234 11.6227 7.49484 11.6227C8.77734 11.6227 9.99281 11.332 11.0775 10.8131L11.0273 10.8347C11.033 10.8319 11.0391 10.8305 11.0461 10.8305C11.0564 10.8305 11.0663 10.8342 11.0738 10.8403C11.1441 10.8984 11.2177 10.9566 11.2922 11.0114C11.303 11.0198 11.31 11.033 11.31 11.0475C11.31 11.0639 11.3011 11.078 11.2884 11.0859C10.9786 11.2711 10.6172 11.4464 10.2408 11.5913L10.1916 11.6081C10.1747 11.6147 10.1625 11.6311 10.1625 11.6498C10.1625 11.6573 10.1644 11.6644 10.1677 11.6705C10.4025 12.1205 10.6406 12.502 10.9041 12.8644L10.8853 12.8377C10.8933 12.8489 10.9069 12.8564 10.9214 12.8564C10.9261 12.8564 10.9308 12.8555 10.935 12.8545C12.278 12.4364 13.4461 11.8317 14.4811 11.0583L14.4506 11.0803C14.4609 11.0728 14.4675 11.0611 14.4689 11.048C14.5097 10.6805 14.5327 10.2539 14.5327 9.82219C14.5327 7.28391 13.7302 4.93313 12.3656 3.00937L12.39 3.04594C12.3863 3.03844 12.3797 3.03234 12.3722 3.02906L12.3717 3.03047Z" fill="var(--fill-0, black)"/>
</g>
</svg>
