<svg preserveAspectRatio="none" width="100%" height="100%" overflow="visible" style="display: block;" viewBox="0 0 15 15" fill="none" xmlns="http://www.w3.org/2000/svg">
<g id="Group">
<path id="Vector" d="M11.5 3C11.2143 3 11 3.21429 11 3.5C11 3.78571 11.2143 4 11.5 4C11.7858 4 12 3.78571 12 3.5C12 3.21429 11.7858 3 11.5 3Z" fill="var(--fill-0, black)"/>
<path id="Vector_2" d="M7.50005 4C5.54242 4 4.00005 5.6017 4.00005 7.5C4.00005 9.39831 5.60174 11 7.50005 11C9.39835 11 11 9.39831 11 7.5C11 5.6017 9.45767 4 7.50005 4ZM7.50005 9.75424C6.25428 9.75424 5.24581 8.74576 5.24581 7.5C5.24581 6.25424 6.25428 5.24576 7.50005 5.24576C8.74581 5.24576 9.75428 6.25424 9.75428 7.5C9.75428 8.74576 8.74581 9.75424 7.50005 9.75424Z" fill="var(--fill-0, black)"/>
<path id="Vector_3" d="M10.543 0H4.5812C2.00822 0 4.62532e-05 2.00837 4.62532e-05 4.51883V10.4812C4.62532e-05 12.9916 2.00822 15 4.51844 15H10.4802C12.9904 15 14.9986 12.9916 14.9986 10.4812V4.51883C15.0614 2.00837 13.0532 0 10.543 0ZM13.618 10.5439C13.618 12.2385 12.2374 13.682 10.4802 13.682H4.51844C2.82404 13.682 1.38067 12.3013 1.38067 10.5439V4.58159C1.38067 2.88703 2.76129 1.44351 4.51844 1.44351H10.4802C12.1746 1.44351 13.618 2.82427 13.618 4.58159V10.5439Z" fill="var(--fill-0, black)"/>
</g>
</svg>
