<svg width="100" height="66" viewBox="0 0 100 66" fill="none" xmlns="http://www.w3.org/2000/svg">
<path fill-rule="evenodd" clip-rule="evenodd" d="M4.50655 1.04C3.38393 1.61144 1.91071 2.83459 1.23274 3.75804L0 5.43727V33V60.5627L1.23274 62.242C1.91071 63.1654 3.38393 64.3886 4.50655 64.96L6.54762 66H50H93.4524L95.4935 64.96C96.6161 64.3886 98.0893 63.1654 98.7673 62.242L100 60.5627V33V5.43727L98.7673 3.75804C98.0893 2.83459 96.6161 1.61144 95.4935 1.04L93.4524 0H50H6.54762L4.50655 1.04ZM5.4494 5.84281C4.8 6.55933 4.46429 7.97811 4.46429 10.0052V13.08H50H95.5357V9.90173V6.72344L94.447 5.73934L93.3589 4.75523H49.8964H6.43452L5.4494 5.84281ZM4.46429 43.0165V59.2766L5.55298 60.2607L6.64107 61.2448H50.1036H93.5655L94.5506 60.1572L95.5357 59.0702V42.913V26.7564H50H4.46429V43.0165ZM12.8095 37.3122C6.8756 40.2901 6.32262 49.0514 11.8321 52.7963C14.1286 54.3572 17.5768 55.0862 18.972 54.3061L19.9238 53.7739L18.3435 51.5553C17.2631 50.0384 16.6804 48.3384 16.5012 46.1781L16.2387 43.0189L17.4857 40.5767C18.172 39.2341 19.0048 37.9675 19.3369 37.7624C22.006 36.1141 16.019 35.7014 12.8095 37.3122ZM22.4649 37.4567C18.269 40.0118 16.794 46.1204 19.3679 50.2805C20.6702 52.386 24.7601 54.7122 27.1226 54.6908C29.753 54.667 33.3851 52.5656 34.8286 50.2323C39.756 42.2684 30.4137 32.6147 22.4649 37.4567ZM43.4946 43.7455C42.3881 44.8515 42.3786 44.9306 43.1756 46.4183L43.7917 47.5684H49.6042C55.5845 47.5684 56.8452 47.1373 56.8452 45.0917C56.8452 43.4149 54.8976 42.8113 49.4863 42.8113H44.4304L43.4946 43.7455ZM60.7565 43.7455C60.2423 44.2599 59.8214 45.0091 59.8214 45.4105C59.8214 47.1099 61.3387 47.5684 66.9643 47.5684C72.8435 47.5684 74.1071 47.1301 74.1071 45.0917C74.1071 43.4149 72.1595 42.8113 66.7482 42.8113H61.6923L60.7565 43.7455ZM78.7482 43.2157C77.4119 43.5671 76.7976 45.6162 77.7024 46.705L78.4196 47.5684H84.1798C87.8667 47.5684 90.1976 47.3115 90.6548 46.8548C91.7274 45.7833 91.5155 44.1207 90.2179 43.4268C89.1012 42.8298 80.797 42.677 78.7482 43.2157Z" fill="#2D5AA4"/>
</svg>
