<svg width="100" height="87" viewBox="0 0 100 87" fill="none" xmlns="http://www.w3.org/2000/svg">
<path fill-rule="evenodd" clip-rule="evenodd" d="M48.3641 0.19628C46.9917 0.5436 45.306 1.61477 44.3327 2.75747C43.9103 3.25386 40.7269 9.32198 36.9376 16.8544C33.2784 24.1283 30.1318 30.2562 29.9451 30.4716C29.7571 30.689 29.413 30.826 29.1726 30.7792C28.9344 30.7328 24.8489 27.7661 20.0942 24.1863C10.3139 16.8232 10.4145 16.8928 8.60128 16.2282L7.26752 15.7394L5.66603 15.8427L4.06474 15.946L3.0547 16.5738C0.989958 17.8568 0 19.9175 0 22.9317V24.6196L4.42543 44.2111L8.85085 63.8023L8.97671 70.8905L9.10256 77.9787L9.66303 79.4562C11.0415 83.0903 13.9466 85.7304 17.6592 86.7227L18.6966 87H50.2137H81.7308L83.2483 86.442C86.7536 85.1528 89.1301 82.7703 90.422 79.2503L90.8887 77.9787L91.0184 70.8905L91.1481 63.8023L95.5739 44.2113L100 24.6204V22.9321C100 19.9175 99.01 17.857 96.9453 16.5738L95.9353 15.946L94.3628 15.8446L92.7902 15.7432L91.6408 16.1183C91.0088 16.3245 90.1549 16.6933 89.7436 16.9377C89.3323 17.1819 85.0053 20.3767 80.1282 24.0372C75.2511 27.6975 71.0656 30.7308 70.8273 30.7779C70.5863 30.8256 70.2425 30.6896 70.0526 30.4716C69.8645 30.2562 66.6991 24.092 63.0182 16.7738L56.3256 3.46779L55.1105 2.24627C53.2487 0.374772 50.7083 -0.397194 48.3641 0.19628ZM43.8677 23.3864L37.8421 35.4855L36.6028 36.7745C33.7335 39.7577 29.478 40.7013 25.5865 39.2165C24.2688 38.7136 23.5427 38.2076 15.4878 32.1777C12.6105 30.024 10.2564 28.3537 10.2564 28.4665C10.2564 28.8024 17.1041 59.2416 17.2233 59.4356C17.3643 59.665 82.6323 59.6706 82.7733 59.4412C82.8904 59.2504 89.7436 28.8018 89.7436 28.4719C89.7436 28.3585 86.9303 30.3728 83.4921 32.9479C80.0536 35.5231 76.8451 37.8929 76.3617 38.2145C72.3173 40.905 66.9453 40.3478 63.4955 36.8799L62.2075 35.5852L56.1573 23.4363C52.8295 16.7543 50.0588 11.2871 50 11.2871C49.9412 11.2871 47.1816 16.7317 43.8677 23.3864ZM18.1624 72.384C18.1624 76.4281 18.2697 76.9442 19.2286 77.5137L19.831 77.8713H49.9902H80.1494L80.7383 77.5652C81.7107 77.0598 81.8376 76.4616 81.8376 72.384V68.6352H50H18.1624V72.384Z" fill="#2D5AA4"/>
</svg>
