<svg preserveAspectRatio="xMidYMid meet" width="100%" height="100%" overflow="visible" style="display: block;" viewBox="0 0 40 30" fill="none" xmlns="http://www.w3.org/2000/svg">
<path id="membertship" fill-rule="evenodd" clip-rule="evenodd" d="M3.35642 0.110305C1.76304 0.453356 0.468243 1.71085 0.101486 3.27153L0.00202694 3.69492L0.00101347 15.0197L0 26.3444L0.104527 26.7485C0.503716 28.2913 1.65 29.4543 3.19426 29.8832L3.61486 30H20.0338H36.4527L36.8581 29.8726C37.389 29.7058 37.9963 29.3995 38.3938 29.098C39.0676 28.5871 39.6624 27.6567 39.896 26.7485L40 26.3444L39.999 15.0197L39.998 3.69492L39.8963 3.26197C39.7332 2.56766 39.297 1.80529 38.7474 1.25383L38.2672 0.771932L37.6978 0.491594C37.3809 0.335594 36.8974 0.164475 36.6076 0.105695L36.0868 0L19.9522 0.00555937L3.81757 0.0110505L3.35642 0.110305ZM3.65595 1.29369C2.76203 1.46983 1.91088 2.13532 1.49939 2.97973L1.25 3.49153L1.22703 4.83051L1.20399 6.16949H12.9331H24.6622V3.69492V1.22034L14.3074 1.2278C8.6123 1.23186 3.81919 1.26149 3.65595 1.29369ZM25.9234 1.26556C25.8701 1.31912 25.8616 9.76271 25.9149 9.76271C25.9351 9.76271 26.2164 9.53647 26.5399 9.26C28.8247 7.3082 28.8034 7.32197 29.1715 7.56332C29.2741 7.63064 29.8598 8.11275 30.473 8.63464C31.0861 9.15654 31.6411 9.62861 31.7061 9.68366L31.8243 9.78373V5.50203V1.22034H28.8964C27.286 1.22034 25.9482 1.24068 25.9234 1.26556ZM33.0856 1.26556C33.0608 1.29037 33.0405 2.40393 33.0405 3.74014V6.16949H35.9182H38.796L38.773 4.83051L38.75 3.49153L38.4906 2.97024C38.0553 2.09539 37.238 1.46461 36.3189 1.2941C35.8911 1.21478 33.1603 1.19064 33.0856 1.26556ZM1.21622 16.8064V26.223L1.35209 26.6643C1.59608 27.457 2.21527 28.1492 3.01784 28.5265L3.41216 28.7119H20.0014H36.5907L37.0347 28.4925C37.8534 28.0881 38.3999 27.4629 38.6557 26.6379L38.7838 26.2252V16.8068V7.38834L35.9291 7.40603L33.0743 7.42373L33.038 9.42373C33.018 10.5237 32.9952 11.4302 32.9873 11.438C32.7648 11.6603 32.6411 11.7288 32.4626 11.7288C32.226 11.7288 32.1482 11.6759 31.2162 10.8803C30.8632 10.579 30.1899 10.0071 29.72 9.60963L28.8657 8.88678L27.3551 10.1796C26.5243 10.8907 25.7534 11.53 25.6419 11.6004C25.3677 11.7734 25.1132 11.7616 24.8855 11.5653L24.6959 11.4018L24.6761 9.3958L24.6564 7.38983H12.9363H1.21622V16.8064ZM9.77466 10.578C6.40216 11.1134 3.88527 13.5944 3.33932 16.922L3.22919 17.5932L3.26757 18.4407C3.28993 18.9344 3.36372 19.5248 3.44432 19.8551C4.4727 24.0689 8.76662 26.5816 12.8902 25.3825C15.8584 24.5195 17.9582 22.006 18.32 18.8832L18.403 18.1668L18.3228 17.3951C17.9747 14.0435 15.5918 11.3682 12.3322 10.6695C11.7505 10.5448 10.3089 10.4933 9.77466 10.578ZM9.89865 11.7993C7.36973 12.1948 5.3202 14.0487 4.65507 16.5424L4.50142 17.1186V18.1017V19.0847L4.65237 19.6502C4.73534 19.9612 4.89676 20.4254 5.01101 20.6818L5.21872 21.1479L5.71007 20.7179C5.98027 20.4814 6.33419 20.1963 6.49655 20.0842C6.89122 19.8117 7.92155 19.2986 8.36149 19.1554C8.55655 19.0919 8.71622 19.0242 8.71622 19.005C8.71622 18.9858 8.65939 18.8891 8.58993 18.7901C8.34189 18.4367 8.18196 18.0473 8.10662 17.613L8.03007 17.1722L8.10237 16.7797C8.44662 14.9113 10.3914 13.918 12.0551 14.7607C12.513 14.9926 13.0449 15.5476 13.2755 16.0339L13.4683 16.4407L13.5 16.9735C13.5399 17.6443 13.436 18.1153 13.1388 18.6106C13.0104 18.8245 12.9054 19.0069 12.9054 19.0161C12.9054 19.0252 13.0955 19.1018 13.3277 19.1862C14.3125 19.5441 15.2369 20.1054 15.9195 20.7599L16.3322 21.1557L16.3972 21.0694C16.5468 20.8704 16.8314 20.1182 16.9703 19.5544L17.1194 18.9492L17.1177 18.1017L17.1161 17.2542L16.9686 16.649C16.4943 14.7018 15.0803 13.008 13.3041 12.2592C12.2853 11.8297 10.9001 11.6426 9.89865 11.7993ZM28.9974 13.2881L21.7448 13.322L21.6157 13.4821C21.3212 13.847 21.5495 14.3846 22.0364 14.4729C22.1613 14.4955 25.478 14.5052 29.4069 14.4943L36.5503 14.4746L36.7042 14.3201L36.8581 14.1657V13.8649C36.8581 13.5262 36.7516 13.3801 36.4495 13.3043C36.3398 13.2767 32.9863 13.2695 28.9974 13.2881ZM10.3208 15.7578C9.93324 15.8965 9.64473 16.1511 9.46128 16.5162L9.2948 16.8475L9.29905 17.2203C9.30919 18.1151 10.0124 18.7571 10.9187 18.6992L11.3356 18.6725L11.6132 18.4882C11.7658 18.3868 11.9728 18.1794 12.0732 18.0272L12.2557 17.7504L12.2841 17.357C12.3207 16.8492 12.2092 16.5227 11.8745 16.1583L11.6046 15.8646L11.263 15.7628C10.8497 15.6397 10.6536 15.6386 10.3208 15.7578ZM21.684 17.6897C21.5492 17.8249 21.4865 17.9558 21.4865 18.1017C21.4865 18.2476 21.5492 18.3784 21.684 18.5137L21.8815 18.7119H29.1892H36.4969L36.6944 18.5137C36.9599 18.2473 36.9599 17.9561 36.6944 17.6897L36.4969 17.4915H29.1892H21.8815L21.684 17.6897ZM10.0338 20.0081C9.0898 20.1253 7.88318 20.5962 7.12838 21.142C6.6775 21.468 6.01351 22.1016 6.01351 22.206C6.01351 22.309 6.77845 23.0338 7.17932 23.3106C7.34162 23.4226 7.71574 23.6357 8.01081 23.7843C10.0447 24.8081 12.4194 24.6441 14.3697 23.3452C14.8405 23.0317 15.6081 22.3237 15.6081 22.2029C15.6081 22.1553 15.4238 21.9451 15.1984 21.7357C14.183 20.7924 13.0426 20.2385 11.6892 20.0313C10.9857 19.9236 10.7419 19.9201 10.0338 20.0081ZM21.9101 21.742C21.5384 21.8155 21.3609 22.4056 21.6156 22.7213L21.7448 22.8814L29.0141 22.9153C33.0122 22.9339 36.3743 22.9255 36.4854 22.8966C36.8747 22.7953 37.0109 22.2481 36.7288 21.9191L36.5658 21.7288L29.3133 21.7205C25.3245 21.7159 21.993 21.7256 21.9101 21.742Z" fill="#000000"/>
</svg>

