<svg preserveAspectRatio="xMidYMid meet" width="100%" height="100%" overflow="visible" style="display: block;" viewBox="0 0 32 30" fill="none" xmlns="http://www.w3.org/2000/svg">
<path id="Course" fill-rule="evenodd" clip-rule="evenodd" d="M15.7198 0.0380196C15.6684 0.0563405 13.5772 0.790238 11.0728 1.6689L6.51936 3.26637L3.54539 3.29753L0.571427 3.32869L0.401702 3.45531C0.308387 3.52498 0.17983 3.67921 0.11602 3.79805L0 4.01416L0.0161554 14.837L0.0322484 25.6599L0.160868 25.832C0.231602 25.9266 0.366959 26.0619 0.461645 26.1325L0.633866 26.261L5.02689 26.2782L9.41985 26.2954V27.2286V28.1617H7.86968H6.31951L6.11329 28.3019C5.77771 28.5301 5.65327 28.745 5.65327 29.0964C5.65327 29.4334 5.76636 29.6409 6.07556 29.8715L6.24784 30H15.9693H25.6908L25.8631 29.8715C26.1723 29.6409 26.2854 29.4334 26.2854 29.0964C26.2854 28.745 26.161 28.5301 25.8254 28.3019L25.6192 28.1617H24.069H22.5188V27.2269V26.2922H26.7764C29.3588 26.2922 31.1175 26.2683 31.2463 26.2314C31.5145 26.1545 31.7287 25.9555 31.8809 25.6417L32 25.3963V14.6482C32 8.73661 31.982 3.91789 31.9601 3.93982C31.9381 3.96176 31.8721 3.89022 31.8134 3.78085C31.7547 3.67142 31.6303 3.52498 31.537 3.45531L31.3673 3.32869L28.6116 3.29528L25.856 3.26195L20.9906 1.62864C18.3147 0.730352 16.0551 -0.0025483 15.9693 6.65992e-06C15.8836 0.00256162 15.7713 0.0196363 15.7198 0.0380196ZM12.7094 3.0611C10.9335 3.68152 9.49701 4.20585 9.5171 4.22629C9.53712 4.24673 11.0028 4.77106 12.7742 5.39148L15.9948 6.51952L19.3348 5.4073C21.1718 4.79555 22.7169 4.2777 22.7683 4.25645C22.8418 4.22616 16.0943 1.91704 15.9698 1.92981C15.9524 1.93162 14.4852 2.44068 12.7094 3.0611ZM0.0315623 14.7637C0.0315623 20.7102 0.0388603 23.1429 0.0478425 20.1696C0.0568246 17.1963 0.0568246 12.331 0.0478425 9.35777C0.0388603 6.38448 0.0315623 8.81718 0.0315623 14.7637ZM1.87234 14.7949V24.4227H15.9693H30.0663V14.7949V5.16701H28.4134H26.7604L26.7603 8.08029L26.7602 10.9936L26.6511 11.2104C26.3161 11.8766 25.3716 11.876 25.0295 11.2094L24.8891 10.936V8.23328V5.5305L24.8112 5.55867C24.7683 5.57412 24.3475 5.70966 23.8761 5.85984L23.019 6.13291L23.0184 8.06708L23.0178 10.0013L22.8775 10.277L22.7371 10.5527L22.4565 10.688C22.3021 10.7623 20.8425 11.3372 19.2129 11.9656L16.25 13.108L15.9693 13.1062L15.6886 13.1045L12.5698 11.8996C10.8545 11.2369 9.38642 10.6526 9.30751 10.6012C9.22854 10.5498 9.11627 10.4207 9.05801 10.3145L8.95203 10.1211L8.92084 8.07163L8.88965 6.02212L7.676 5.59456L6.46235 5.16701H4.16735H1.87234V14.7949ZM10.7921 7.96482V9.20466L11.3691 9.42701C11.6865 9.54927 12.8513 9.99745 13.9577 10.4229L15.9693 11.1966L17.981 10.4229C19.0874 9.99745 20.2523 9.54927 20.5696 9.42701L21.1466 9.20466V7.98931V6.7739L21.0686 6.80325C21.0257 6.81945 19.9199 7.18699 18.6112 7.62003C17.1163 8.11475 16.1366 8.40745 15.9756 8.40745C15.8072 8.40745 14.8957 8.11949 13.3126 7.56618C11.9889 7.10349 10.8802 6.72492 10.8489 6.72492C10.8166 6.72492 10.7921 7.2604 10.7921 7.96482ZM4.3362 16.0345C4.10622 16.1381 3.89844 16.3577 3.81018 16.5905C3.76795 16.7019 3.74413 17.4988 3.745 18.7716L3.74637 20.7772L3.86613 21.0407C3.93525 21.1929 4.0731 21.3574 4.19224 21.43L4.39858 21.5557L6.54113 21.5559L8.68369 21.5562L8.89483 21.4561C9.01098 21.401 9.1696 21.2537 9.24732 21.1289L9.38866 20.9018V18.7831V16.6643L9.26391 16.4528C9.1953 16.3364 9.05994 16.1821 8.96313 16.11L8.78717 15.9789L6.65522 15.9645L4.52333 15.9501L4.3362 16.0345ZM11.7654 16.0885C11.1263 16.4557 11.1411 17.3817 11.7914 17.708L12.0085 17.817L19.7346 17.8171L27.4608 17.8172L27.7032 17.6811C27.8624 17.5917 27.9909 17.4513 28.0778 17.272L28.2101 16.999L28.173 16.7708C28.1312 16.5134 27.9877 16.2962 27.7344 16.1074L27.5622 15.9789L19.7853 15.9639L12.0085 15.949L11.7654 16.0885ZM5.61491 18.7519V19.6867H6.55055H7.48619V18.7519V17.8172H6.55055H5.61491V18.7519ZM11.9395 19.754C11.1882 19.9718 11.0653 21.0192 11.7428 21.4318L11.9461 21.5557H19.7431H27.5401L27.7471 21.4297C27.8744 21.3521 28.0026 21.1939 28.0803 21.0184L28.2065 20.7333L28.1642 20.5081C28.1047 20.191 27.9068 19.9407 27.6087 19.8054L27.353 19.6894L19.7431 19.6937C15.4284 19.6961 12.0494 19.7222 11.9395 19.754ZM11.2911 27.2269V28.1617H15.9693H20.6475V27.2269V26.2922H15.9693H11.2911V27.2269Z" fill="#000000"/>
</svg>

