<svg width="100" height="112" viewBox="0 0 100 112" fill="none" xmlns="http://www.w3.org/2000/svg">
<path d="M76.7129 58.2098C79.5863 59.5996 83.9479 62.7413 86.7559 65.4422C90.3656 68.9148 93.154 72.6437 95.1738 76.701C98.3492 83.0804 99.4977 87.84 99.7959 95.8484L100 101.321L99.4121 103.499C98.7963 105.78 97.318 108.188 95.7969 109.388C95.3033 109.778 94.0221 110.509 92.9502 111.012L91.002 111.928L51.042 111.993C28.74 112.029 10.2946 111.924 9.28906 111.756C5.61342 111.137 2.62402 108.864 0.922852 105.392L0 103.51L0.0214844 90.7117L0.635742 88.0174C2.67905 79.0475 5.84836 72.8962 11.4912 66.949C14.6316 63.6396 17.6686 61.2505 21.5723 59.0194C22.9951 58.2061 24.2738 57.541 24.416 57.5399C24.556 57.5399 25.7695 58.3955 27.1113 59.4422C30.0788 61.7565 36.6793 65.0322 40.1904 65.9324C51.5106 68.8351 63.2118 66.5181 72.4346 59.5487L75.1846 57.4705L76.7129 58.2098ZM23.8809 68.158C21.7571 69.5661 19.9454 71.1129 18.0195 73.1424C13.6196 77.7795 11.1396 82.4237 9.41016 90.0154L9.01953 91.7322L9.00293 101.429L9.00488 101.432C9.41456 102.268 9.91328 102.645 10.4795 102.81C10.548 102.813 10.6274 102.817 10.7188 102.82C11.2981 102.837 12.1378 102.854 13.2314 102.87C15.4097 102.902 18.4748 102.93 22.2266 102.951C29.724 102.993 39.89 103.011 51.0273 102.993L88.9834 102.931L89.1221 102.867H89.124C89.4202 102.728 89.7967 102.531 90.1309 102.341C90.137 102.337 90.1424 102.332 90.1484 102.329C90.185 102.277 90.2284 102.215 90.2734 102.141C90.3797 101.968 90.4804 101.776 90.5645 101.586C90.649 101.394 90.6984 101.244 90.7227 101.154L90.9551 100.292L90.8027 96.1834C90.5462 89.2934 89.6552 85.812 87.1172 80.7127L86.8252 80.1434C85.3312 77.3065 83.2771 74.5832 80.5166 71.9275C79.2038 70.6649 77.4466 69.2857 75.8398 68.1727C64.9243 75.5552 51.5404 77.9388 38.6094 74.8133L37.9551 74.6502C35.2951 73.9682 32.1096 72.601 29.4473 71.2801C27.6234 70.3752 25.6456 69.2929 23.8809 68.158ZM43.5859 0.459849C46.3361 -0.139603 53.1627 -0.156405 55.9189 0.429576C66.8955 2.76342 75.886 11.5113 78.6182 22.5155L79.2451 25.0419L79.2148 34.1346L78.4678 36.9364C77.0319 42.3211 73.1178 48.6678 69.2549 51.8739C63.4583 56.685 57.3707 58.8865 49.8662 58.8865C42.1919 58.8865 36.0198 56.5958 30.1504 51.5692C26.3627 48.325 22.5273 41.9243 21.1162 36.492L20.5039 34.1346L20.5225 24.7049L21.126 22.3475C21.8567 19.4924 24.1536 14.5425 25.8154 12.244C27.6807 9.66385 30.9826 6.45767 33.5098 4.77137C36.1444 3.01349 40.5822 1.1146 43.5859 0.459849ZM49.7725 8.99988C48.7477 9.00237 47.7604 9.03702 46.9297 9.09656C46.5163 9.12619 46.1725 9.15984 45.9043 9.19324C45.6314 9.22722 45.5077 9.25187 45.5029 9.25281C43.6314 9.66072 40.2338 11.1048 38.5059 12.2577H38.5049C36.9116 13.3209 34.3767 15.7635 33.1094 17.5165V17.5174C32.7672 17.9907 32.0582 19.2115 31.2852 20.8768C30.5189 22.5275 30.015 23.9137 29.8447 24.579L29.5195 25.8446L29.5059 32.9911L29.8271 34.2293L29.9277 34.5956C31.0202 38.4058 33.8555 42.8934 36.0049 44.7342L36.4033 45.0692C40.5138 48.4676 44.5278 49.8865 49.8662 49.8866C55.2625 49.8866 59.3188 48.4241 63.5068 44.9481C65.7759 43.0648 68.7623 38.4054 69.7725 34.617L70.2188 32.9393L70.2412 26.1258L69.8838 24.6854V24.6844C67.9705 16.978 61.6101 10.8414 54.0469 9.23328C54.0401 9.23196 53.9152 9.20726 53.6426 9.17468C53.3737 9.14256 53.03 9.11052 52.6162 9.08289C51.7847 9.02736 50.7972 8.9974 49.7725 8.99988Z" fill="#2D5AA4"/>
</svg>
