<svg width="113" height="113" viewBox="0 0 113 113" fill="none" xmlns="http://www.w3.org/2000/svg">
<path fill-rule="evenodd" clip-rule="evenodd" d="M33.1102 11.1202C20.9142 16.6587 10.5006 21.5499 9.96814 21.9891L9 22.7883V43.7596V64.731L9.9304 69.6333C12.2682 81.9557 18.7362 91.6537 29.6746 99.2373C33.796 102.095 45.0368 107.698 51.9547 110.342L56.2895 112L59.3248 110.939C60.994 110.355 65.2551 108.598 68.7933 107.034C88.2581 98.4322 97.9878 88.6176 102.293 73.2428L103.573 68.6718L103.787 45.7819L104 22.8921L102.932 21.9785C101.458 20.7179 57.4428 0.938578 56.2482 1.00014C55.7182 1.02711 45.3057 5.58116 33.1102 11.1202ZM36.6491 18.1721L16.9597 27.0837L16.9621 46.9985L16.965 66.9128L18.0004 70.7239C21.4449 83.4057 29.1953 91.4279 45.1848 98.8609C48.4695 100.388 52.3887 102.094 53.8939 102.654L56.6315 103.669L63.0346 100.982C82.0265 93.0098 91.1607 84.3362 94.9006 70.7239L95.9477 66.9128L95.9577 47.0026L95.9672 27.0925L77.0632 18.5239C66.666 13.8109 57.7494 9.79865 57.2482 9.6081C56.7294 9.40992 47.8675 13.0944 36.6491 18.1721ZM49.7655 26.2875C44.1778 28.9799 40.8388 34.2693 40.8388 40.4287V44.1531L38.524 44.8432C36.0996 45.5655 33.4027 48.2117 32.8473 50.4133C32.6675 51.1246 32.6014 57.8135 32.6999 65.2781L32.8791 78.8499L34.1002 80.5034C34.7718 81.4134 36.231 82.6189 37.343 83.1823L39.3648 84.2078H56.4634H73.5621L75.6139 83.1823C76.7424 82.6189 78.2683 81.2609 79.0042 80.1651L80.3426 78.1727V64.4513V50.7306L79.47 49.0525C78.3603 46.9176 76.0602 45.1135 73.8292 44.6262L72.0881 44.2457L72.0751 40.3349C72.0539 33.9427 68.9437 29.0485 63.1219 26.2459L60.5135 24.99L56.4245 25.0193L52.3362 25.0486L49.7655 26.2875ZM52.6675 33.6835C50.0632 35.0725 48.5037 38.0171 48.5037 41.5445V44.3389H56.4634H64.4232V41.5445C64.4232 36.5061 60.9533 32.6123 56.4634 32.6123C55.4806 32.6123 53.7725 33.0942 52.6675 33.6835ZM40.2492 64.2743V76.0009H56.4634H72.6777V64.2743V52.5476H56.4634H40.2492V64.2743ZM54.1846 61.3854C52.0968 63.0177 52.0968 65.5308 54.1846 67.1631C55.039 67.8315 56.0643 68.3786 56.4634 68.3786C58.0294 68.3786 60.2959 65.9512 60.2959 64.2743C60.2959 62.5973 58.0294 60.1699 56.4634 60.1699C56.0643 60.1699 55.039 60.717 54.1846 61.3854Z" fill="#2D5AA4"/>
</svg>
